<?xml version="1.0" encoding="utf-8"?>
<svg xmlns="http://www.w3.org/2000/svg" xmlns:xlink="http://www.w3.org/1999/xlink" width="672" height="480" viewBox="0 0 2688 1920">
<defs>
  <clipPath id="clip270">
    <rect x="0" y="0" width="2688" height="1920"/>
  </clipPath>
</defs>
<path clip-path="url(#clip270)" d="M0 1920 L2688 1920 L2688 -4.26326e-14 L0 -4.26326e-14  Z" fill="#ffffff" fill-rule="evenodd" fill-opacity="1"/>
<defs>
  <clipPath id="clip271">
    <rect x="537" y="0" width="1883" height="1883"/>
  </clipPath>
</defs>
<path clip-path="url(#clip270)" d="M210.238 1734.12 L2640.76 1734.12 L2640.76 47.2441 L210.238 47.2441  Z" fill="#ffffff" fill-rule="evenodd" fill-opacity="1"/>
<defs>
  <clipPath id="clip272">
    <rect x="210" y="47" width="2432" height="1688"/>
  </clipPath>
</defs>
<polyline clip-path="url(#clip272)" style="stroke:#000000; stroke-linecap:round; stroke-linejoin:round; stroke-width:2; stroke-opacity:0.1; fill:none" points="895.034,1734.12 895.034,47.2441 "/>
<polyline clip-path="url(#clip272)" style="stroke:#000000; stroke-linecap:round; stroke-linejoin:round; stroke-width:2; stroke-opacity:0.1; fill:none" points="1425.5,1734.12 1425.5,47.2441 "/>
<polyline clip-path="url(#clip272)" style="stroke:#000000; stroke-linecap:round; stroke-linejoin:round; stroke-width:2; stroke-opacity:0.1; fill:none" points="1955.96,1734.12 1955.96,47.2441 "/>
<polyline clip-path="url(#clip272)" style="stroke:#000000; stroke-linecap:round; stroke-linejoin:round; stroke-width:2; stroke-opacity:0.1; fill:none" points="2486.42,1734.12 2486.42,47.2441 "/>
<polyline clip-path="url(#clip272)" style="stroke:#000000; stroke-linecap:round; stroke-linejoin:round; stroke-width:2; stroke-opacity:0.1; fill:none" points="210.238,1155.91 2640.76,1155.91 "/>
<polyline clip-path="url(#clip272)" style="stroke:#000000; stroke-linecap:round; stroke-linejoin:round; stroke-width:2; stroke-opacity:0.1; fill:none" points="210.238,625.449 2640.76,625.449 "/>
<polyline clip-path="url(#clip272)" style="stroke:#000000; stroke-linecap:round; stroke-linejoin:round; stroke-width:2; stroke-opacity:0.1; fill:none" points="210.238,94.9858 2640.76,94.9858 "/>
<polyline clip-path="url(#clip270)" style="stroke:#000000; stroke-linecap:round; stroke-linejoin:round; stroke-width:4; stroke-opacity:1; fill:none" points="210.238,1686.38 2640.76,1686.38 "/>
<polyline clip-path="url(#clip270)" style="stroke:#000000; stroke-linecap:round; stroke-linejoin:round; stroke-width:4; stroke-opacity:1; fill:none" points="895.034,1705.27 895.034,1667.48 "/>
<polyline clip-path="url(#clip270)" style="stroke:#000000; stroke-linecap:round; stroke-linejoin:round; stroke-width:4; stroke-opacity:1; fill:none" points="1425.5,1705.27 1425.5,1667.48 "/>
<polyline clip-path="url(#clip270)" style="stroke:#000000; stroke-linecap:round; stroke-linejoin:round; stroke-width:4; stroke-opacity:1; fill:none" points="1955.96,1705.27 1955.96,1667.48 "/>
<polyline clip-path="url(#clip270)" style="stroke:#000000; stroke-linecap:round; stroke-linejoin:round; stroke-width:4; stroke-opacity:1; fill:none" points="2486.42,1705.27 2486.42,1667.48 "/>
<path clip-path="url(#clip270)" d="M869.721 1747.14 L877.36 1747.14 L877.36 1720.78 L869.05 1722.45 L869.05 1718.19 L877.314 1716.52 L881.99 1716.52 L881.99 1747.14 L889.629 1747.14 L889.629 1751.08 L869.721 1751.08 L869.721 1747.14 Z" fill="#000000" fill-rule="nonzero" fill-opacity="1" /><path clip-path="url(#clip270)" d="M909.073 1719.6 Q905.462 1719.6 903.633 1723.16 Q901.828 1726.7 901.828 1733.83 Q901.828 1740.94 903.633 1744.51 Q905.462 1748.05 909.073 1748.05 Q912.707 1748.05 914.513 1744.51 Q916.341 1740.94 916.341 1733.83 Q916.341 1726.7 914.513 1723.16 Q912.707 1719.6 909.073 1719.6 M909.073 1715.89 Q914.883 1715.89 917.939 1720.5 Q921.017 1725.08 921.017 1733.83 Q921.017 1742.56 917.939 1747.17 Q914.883 1751.75 909.073 1751.75 Q903.263 1751.75 900.184 1747.17 Q897.129 1742.56 897.129 1733.83 Q897.129 1725.08 900.184 1720.5 Q903.263 1715.89 909.073 1715.89 Z" fill="#000000" fill-rule="nonzero" fill-opacity="1" /><path clip-path="url(#clip270)" d="M1404.27 1747.14 L1420.59 1747.14 L1420.59 1751.08 L1398.65 1751.08 L1398.65 1747.14 Q1401.31 1744.39 1405.89 1739.76 Q1410.5 1735.11 1411.68 1733.76 Q1413.92 1731.24 1414.8 1729.51 Q1415.71 1727.75 1415.71 1726.06 Q1415.71 1723.3 1413.76 1721.57 Q1411.84 1719.83 1408.74 1719.83 Q1406.54 1719.83 1404.08 1720.59 Q1401.65 1721.36 1398.88 1722.91 L1398.88 1718.19 Q1401.7 1717.05 1404.15 1716.47 Q1406.61 1715.89 1408.65 1715.89 Q1414.02 1715.89 1417.21 1718.58 Q1420.4 1721.26 1420.4 1725.76 Q1420.4 1727.88 1419.59 1729.81 Q1418.81 1731.7 1416.7 1734.3 Q1416.12 1734.97 1413.02 1738.19 Q1409.92 1741.38 1404.27 1747.14 Z" fill="#000000" fill-rule="nonzero" fill-opacity="1" /><path clip-path="url(#clip270)" d="M1440.4 1719.6 Q1436.79 1719.6 1434.96 1723.16 Q1433.16 1726.7 1433.16 1733.83 Q1433.16 1740.94 1434.96 1744.51 Q1436.79 1748.05 1440.4 1748.05 Q1444.04 1748.05 1445.84 1744.51 Q1447.67 1740.94 1447.67 1733.83 Q1447.67 1726.7 1445.84 1723.16 Q1444.04 1719.6 1440.4 1719.6 M1440.4 1715.89 Q1446.21 1715.89 1449.27 1720.5 Q1452.35 1725.08 1452.35 1733.83 Q1452.35 1742.56 1449.27 1747.17 Q1446.21 1751.75 1440.4 1751.75 Q1434.59 1751.75 1431.52 1747.17 Q1428.46 1742.56 1428.46 1733.83 Q1428.46 1725.08 1431.52 1720.5 Q1434.59 1715.89 1440.4 1715.89 Z" fill="#000000" fill-rule="nonzero" fill-opacity="1" /><path clip-path="url(#clip270)" d="M1944.8 1732.45 Q1948.16 1733.16 1950.03 1735.43 Q1951.93 1737.7 1951.93 1741.03 Q1951.93 1746.15 1948.41 1748.95 Q1944.9 1751.75 1938.41 1751.75 Q1936.24 1751.75 1933.92 1751.31 Q1931.63 1750.89 1929.18 1750.04 L1929.18 1745.52 Q1931.12 1746.66 1933.44 1747.24 Q1935.75 1747.82 1938.27 1747.82 Q1942.67 1747.82 1944.96 1746.08 Q1947.28 1744.34 1947.28 1741.03 Q1947.28 1737.98 1945.13 1736.26 Q1943 1734.53 1939.18 1734.53 L1935.15 1734.53 L1935.15 1730.69 L1939.36 1730.69 Q1942.81 1730.69 1944.64 1729.32 Q1946.47 1727.93 1946.47 1725.34 Q1946.47 1722.68 1944.57 1721.26 Q1942.7 1719.83 1939.18 1719.83 Q1937.26 1719.83 1935.06 1720.25 Q1932.86 1720.66 1930.22 1721.54 L1930.22 1717.38 Q1932.88 1716.64 1935.2 1716.26 Q1937.53 1715.89 1939.59 1715.89 Q1944.92 1715.89 1948.02 1718.32 Q1951.12 1720.73 1951.12 1724.85 Q1951.12 1727.72 1949.48 1729.71 Q1947.84 1731.68 1944.8 1732.45 Z" fill="#000000" fill-rule="nonzero" fill-opacity="1" /><path clip-path="url(#clip270)" d="M1970.8 1719.6 Q1967.19 1719.6 1965.36 1723.16 Q1963.55 1726.7 1963.55 1733.83 Q1963.55 1740.94 1965.36 1744.51 Q1967.19 1748.05 1970.8 1748.05 Q1974.43 1748.05 1976.24 1744.51 Q1978.07 1740.94 1978.07 1733.83 Q1978.07 1726.7 1976.24 1723.16 Q1974.43 1719.6 1970.8 1719.6 M1970.8 1715.89 Q1976.61 1715.89 1979.66 1720.5 Q1982.74 1725.08 1982.74 1733.83 Q1982.74 1742.56 1979.66 1747.17 Q1976.61 1751.75 1970.8 1751.75 Q1964.99 1751.75 1961.91 1747.17 Q1958.85 1742.56 1958.85 1733.83 Q1958.85 1725.08 1961.91 1720.5 Q1964.99 1715.89 1970.8 1715.89 Z" fill="#000000" fill-rule="nonzero" fill-opacity="1" /><path clip-path="url(#clip270)" d="M2474.59 1720.59 L2462.79 1739.04 L2474.59 1739.04 L2474.59 1720.59 M2473.37 1716.52 L2479.25 1716.52 L2479.25 1739.04 L2484.18 1739.04 L2484.18 1742.93 L2479.25 1742.93 L2479.25 1751.08 L2474.59 1751.08 L2474.59 1742.93 L2458.99 1742.93 L2458.99 1738.42 L2473.37 1716.52 Z" fill="#000000" fill-rule="nonzero" fill-opacity="1" /><path clip-path="url(#clip270)" d="M2501.91 1719.6 Q2498.3 1719.6 2496.47 1723.16 Q2494.66 1726.7 2494.66 1733.83 Q2494.66 1740.94 2496.47 1744.51 Q2498.3 1748.05 2501.91 1748.05 Q2505.54 1748.05 2507.35 1744.51 Q2509.18 1740.94 2509.18 1733.83 Q2509.18 1726.7 2507.35 1723.16 Q2505.54 1719.6 2501.91 1719.6 M2501.91 1715.89 Q2507.72 1715.89 2510.77 1720.5 Q2513.85 1725.08 2513.85 1733.83 Q2513.85 1742.56 2510.77 1747.17 Q2507.72 1751.75 2501.91 1751.75 Q2496.1 1751.75 2493.02 1747.17 Q2489.96 1742.56 2489.96 1733.83 Q2489.96 1725.08 2493.02 1720.5 Q2496.1 1715.89 2501.91 1715.89 Z" fill="#000000" fill-rule="nonzero" fill-opacity="1" /><path clip-path="url(#clip270)" d="M1009.78 1865.38 Q1002.69 1865.38 999.949 1867 Q997.212 1868.63 997.212 1872.54 Q997.212 1875.66 999.249 1877.51 Q1001.32 1879.32 1004.85 1879.32 Q1009.72 1879.32 1012.65 1875.88 Q1015.61 1872.42 1015.61 1866.69 L1015.61 1865.38 L1009.78 1865.38 M1021.47 1862.96 L1021.47 1883.3 L1015.61 1883.3 L1015.61 1877.89 Q1013.6 1881.14 1010.61 1882.7 Q1007.62 1884.22 1003.29 1884.22 Q997.817 1884.22 994.57 1881.17 Q991.356 1878.08 991.356 1872.92 Q991.356 1866.91 995.366 1863.85 Q999.408 1860.8 1007.4 1860.8 L1015.61 1860.8 L1015.61 1860.23 Q1015.61 1856.18 1012.94 1853.99 Q1010.29 1851.76 1005.49 1851.76 Q1002.43 1851.76 999.536 1852.49 Q996.639 1853.22 993.966 1854.69 L993.966 1849.28 Q997.18 1848.03 1000.2 1847.43 Q1003.23 1846.79 1006.09 1846.79 Q1013.83 1846.79 1017.65 1850.8 Q1021.47 1854.81 1021.47 1862.96 Z" fill="#000000" fill-rule="nonzero" fill-opacity="1" /><path clip-path="url(#clip270)" d="M1059.18 1849.02 L1059.18 1854.5 Q1056.7 1853.13 1054.19 1852.46 Q1051.7 1851.76 1049.16 1851.76 Q1043.46 1851.76 1040.31 1855.39 Q1037.16 1858.98 1037.16 1865.51 Q1037.16 1872.03 1040.31 1875.66 Q1043.46 1879.26 1049.16 1879.26 Q1051.7 1879.26 1054.19 1878.59 Q1056.7 1877.89 1059.18 1876.52 L1059.18 1881.93 Q1056.73 1883.08 1054.09 1883.65 Q1051.48 1884.22 1048.52 1884.22 Q1040.47 1884.22 1035.72 1879.16 Q1030.98 1874.1 1030.98 1865.51 Q1030.98 1856.79 1035.76 1851.79 Q1040.56 1846.79 1048.9 1846.79 Q1051.61 1846.79 1054.19 1847.37 Q1056.76 1847.91 1059.18 1849.02 Z" fill="#000000" fill-rule="nonzero" fill-opacity="1" /><path clip-path="url(#clip270)" d="M1090.02 1853.13 Q1089.04 1852.55 1087.86 1852.3 Q1086.71 1852.01 1085.31 1852.01 Q1080.35 1852.01 1077.67 1855.26 Q1075.03 1858.47 1075.03 1864.52 L1075.03 1883.3 L1069.14 1883.3 L1069.14 1847.65 L1075.03 1847.65 L1075.03 1853.19 Q1076.88 1849.94 1079.84 1848.39 Q1082.8 1846.79 1087.03 1846.79 Q1087.64 1846.79 1088.37 1846.89 Q1089.1 1846.95 1089.99 1847.11 L1090.02 1853.13 Z" fill="#000000" fill-rule="nonzero" fill-opacity="1" /><path clip-path="url(#clip270)" d="M1125.23 1864.01 L1125.23 1866.88 L1098.3 1866.88 Q1098.68 1872.92 1101.93 1876.11 Q1105.21 1879.26 1111.03 1879.26 Q1114.4 1879.26 1117.56 1878.43 Q1120.74 1877.6 1123.86 1875.95 L1123.86 1881.49 Q1120.71 1882.82 1117.4 1883.52 Q1114.09 1884.22 1110.68 1884.22 Q1102.15 1884.22 1097.15 1879.26 Q1092.19 1874.29 1092.19 1865.83 Q1092.19 1857.07 1096.9 1851.95 Q1101.64 1846.79 1109.66 1846.79 Q1116.86 1846.79 1121.03 1851.44 Q1125.23 1856.06 1125.23 1864.01 M1119.37 1862.29 Q1119.31 1857.49 1116.66 1854.62 Q1114.05 1851.76 1109.73 1851.76 Q1104.82 1851.76 1101.86 1854.53 Q1098.94 1857.3 1098.49 1862.33 L1119.37 1862.29 Z" fill="#000000" fill-rule="nonzero" fill-opacity="1" /><path clip-path="url(#clip270)" d="M1157.56 1848.7 L1157.56 1854.24 Q1155.08 1852.97 1152.41 1852.33 Q1149.73 1851.7 1146.87 1851.7 Q1142.51 1851.7 1140.31 1853.03 Q1138.15 1854.37 1138.15 1857.04 Q1138.15 1859.08 1139.71 1860.26 Q1141.27 1861.4 1145.98 1862.45 L1147.98 1862.9 Q1154.22 1864.24 1156.83 1866.69 Q1159.47 1869.11 1159.47 1873.47 Q1159.47 1878.43 1155.53 1881.33 Q1151.61 1884.22 1144.74 1884.22 Q1141.87 1884.22 1138.75 1883.65 Q1135.67 1883.11 1132.23 1882 L1132.23 1875.95 Q1135.48 1877.64 1138.63 1878.49 Q1141.78 1879.32 1144.86 1879.32 Q1149 1879.32 1151.23 1877.92 Q1153.46 1876.49 1153.46 1873.91 Q1153.46 1871.52 1151.84 1870.25 Q1150.24 1868.98 1144.8 1867.8 L1142.76 1867.32 Q1137.32 1866.18 1134.9 1863.82 Q1132.48 1861.43 1132.48 1857.3 Q1132.48 1852.27 1136.05 1849.53 Q1139.61 1846.79 1146.17 1846.79 Q1149.42 1846.79 1152.28 1847.27 Q1155.15 1847.75 1157.56 1848.7 Z" fill="#000000" fill-rule="nonzero" fill-opacity="1" /><path clip-path="url(#clip270)" d="M1203.33 1851.76 Q1198.62 1851.76 1195.89 1855.45 Q1193.15 1859.11 1193.15 1865.51 Q1193.15 1871.91 1195.85 1875.6 Q1198.59 1879.26 1203.33 1879.26 Q1208.01 1879.26 1210.75 1875.57 Q1213.49 1871.87 1213.49 1865.51 Q1213.49 1859.17 1210.75 1855.48 Q1208.01 1851.76 1203.33 1851.76 M1203.33 1846.79 Q1210.97 1846.79 1215.33 1851.76 Q1219.69 1856.72 1219.69 1865.51 Q1219.69 1874.26 1215.33 1879.26 Q1210.97 1884.22 1203.33 1884.22 Q1195.66 1884.22 1191.3 1879.26 Q1186.97 1874.26 1186.97 1865.51 Q1186.97 1856.72 1191.3 1851.76 Q1195.66 1846.79 1203.33 1846.79 Z" fill="#000000" fill-rule="nonzero" fill-opacity="1" /><path clip-path="url(#clip270)" d="M1247.45 1833.78 L1247.45 1838.65 L1241.85 1838.65 Q1238.7 1838.65 1237.45 1839.92 Q1236.24 1841.19 1236.24 1844.5 L1236.24 1847.65 L1245.89 1847.65 L1245.89 1852.2 L1236.24 1852.2 L1236.24 1883.3 L1230.36 1883.3 L1230.36 1852.2 L1224.75 1852.2 L1224.75 1847.65 L1230.36 1847.65 L1230.36 1845.17 Q1230.36 1839.22 1233.13 1836.51 Q1235.89 1833.78 1241.91 1833.78 L1247.45 1833.78 Z" fill="#000000" fill-rule="nonzero" fill-opacity="1" /><path clip-path="url(#clip270)" d="M1269.66 1847.65 L1275.52 1847.65 L1282.84 1875.47 L1290.13 1847.65 L1297.04 1847.65 L1304.36 1875.47 L1311.65 1847.65 L1317.5 1847.65 L1308.18 1883.3 L1301.27 1883.3 L1293.6 1854.08 L1285.9 1883.3 L1278.99 1883.3 L1269.66 1847.65 Z" fill="#000000" fill-rule="nonzero" fill-opacity="1" /><path clip-path="url(#clip270)" d="M1356.02 1861.78 L1356.02 1883.3 L1350.16 1883.3 L1350.16 1861.98 Q1350.16 1856.92 1348.19 1854.4 Q1346.21 1851.89 1342.27 1851.89 Q1337.52 1851.89 1334.79 1854.91 Q1332.05 1857.93 1332.05 1863.15 L1332.05 1883.3 L1326.16 1883.3 L1326.16 1833.78 L1332.05 1833.78 L1332.05 1853.19 Q1334.15 1849.98 1336.98 1848.39 Q1339.85 1846.79 1343.57 1846.79 Q1349.71 1846.79 1352.86 1850.61 Q1356.02 1854.4 1356.02 1861.78 Z" fill="#000000" fill-rule="nonzero" fill-opacity="1" /><path clip-path="url(#clip270)" d="M1398.19 1864.01 L1398.19 1866.88 L1371.26 1866.88 Q1371.64 1872.92 1374.89 1876.11 Q1378.17 1879.26 1383.99 1879.26 Q1387.37 1879.26 1390.52 1878.43 Q1393.7 1877.6 1396.82 1875.95 L1396.82 1881.49 Q1393.67 1882.82 1390.36 1883.52 Q1387.05 1884.22 1383.64 1884.22 Q1375.11 1884.22 1370.12 1879.26 Q1365.15 1874.29 1365.15 1865.83 Q1365.15 1857.07 1369.86 1851.95 Q1374.6 1846.79 1382.62 1846.79 Q1389.82 1846.79 1393.99 1851.44 Q1398.19 1856.06 1398.19 1864.01 M1392.33 1862.29 Q1392.27 1857.49 1389.63 1854.62 Q1387.02 1851.76 1382.69 1851.76 Q1377.79 1851.76 1374.83 1854.53 Q1371.9 1857.3 1371.45 1862.33 L1392.33 1862.29 Z" fill="#000000" fill-rule="nonzero" fill-opacity="1" /><path clip-path="url(#clip270)" d="M1424 1865.38 Q1416.9 1865.38 1414.17 1867 Q1411.43 1868.63 1411.43 1872.54 Q1411.43 1875.66 1413.47 1877.51 Q1415.53 1879.32 1419.07 1879.32 Q1423.94 1879.32 1426.87 1875.88 Q1429.83 1872.42 1429.83 1866.69 L1429.83 1865.38 L1424 1865.38 M1435.68 1862.96 L1435.68 1883.3 L1429.83 1883.3 L1429.83 1877.89 Q1427.82 1881.14 1424.83 1882.7 Q1421.84 1884.22 1417.51 1884.22 Q1412.03 1884.22 1408.79 1881.17 Q1405.57 1878.08 1405.57 1872.92 Q1405.57 1866.91 1409.58 1863.85 Q1413.62 1860.8 1421.61 1860.8 L1429.83 1860.8 L1429.83 1860.23 Q1429.83 1856.18 1427.15 1853.99 Q1424.51 1851.76 1419.7 1851.76 Q1416.65 1851.76 1413.75 1852.49 Q1410.86 1853.22 1408.18 1854.69 L1408.18 1849.28 Q1411.4 1848.03 1414.42 1847.43 Q1417.44 1846.79 1420.31 1846.79 Q1428.04 1846.79 1431.86 1850.8 Q1435.68 1854.81 1435.68 1862.96 Z" fill="#000000" fill-rule="nonzero" fill-opacity="1" /><path clip-path="url(#clip270)" d="M1453.54 1837.53 L1453.54 1847.65 L1465.6 1847.65 L1465.6 1852.2 L1453.54 1852.2 L1453.54 1871.56 Q1453.54 1875.92 1454.72 1877.16 Q1455.92 1878.4 1459.59 1878.4 L1465.6 1878.4 L1465.6 1883.3 L1459.59 1883.3 Q1452.81 1883.3 1450.23 1880.79 Q1447.65 1878.24 1447.65 1871.56 L1447.65 1852.2 L1443.35 1852.2 L1443.35 1847.65 L1447.65 1847.65 L1447.65 1837.53 L1453.54 1837.53 Z" fill="#000000" fill-rule="nonzero" fill-opacity="1" /><path clip-path="url(#clip270)" d="M1499.82 1837.53 L1499.82 1847.65 L1511.88 1847.65 L1511.88 1852.2 L1499.82 1852.2 L1499.82 1871.56 Q1499.82 1875.92 1500.99 1877.16 Q1502.2 1878.4 1505.86 1878.4 L1511.88 1878.4 L1511.88 1883.3 L1505.86 1883.3 Q1499.08 1883.3 1496.51 1880.79 Q1493.93 1878.24 1493.93 1871.56 L1493.93 1852.2 L1489.63 1852.2 L1489.63 1847.65 L1493.93 1847.65 L1493.93 1837.53 L1499.82 1837.53 Z" fill="#000000" fill-rule="nonzero" fill-opacity="1" /><path clip-path="url(#clip270)" d="M1533.4 1851.76 Q1528.68 1851.76 1525.95 1855.45 Q1523.21 1859.11 1523.21 1865.51 Q1523.21 1871.91 1525.92 1875.6 Q1528.65 1879.26 1533.4 1879.26 Q1538.07 1879.26 1540.81 1875.57 Q1543.55 1871.87 1543.55 1865.51 Q1543.55 1859.17 1540.81 1855.48 Q1538.07 1851.76 1533.4 1851.76 M1533.4 1846.79 Q1541.03 1846.79 1545.39 1851.76 Q1549.76 1856.72 1549.76 1865.51 Q1549.76 1874.26 1545.39 1879.26 Q1541.03 1884.22 1533.4 1884.22 Q1525.72 1884.22 1521.36 1879.26 Q1517.04 1874.26 1517.04 1865.51 Q1517.04 1856.72 1521.36 1851.76 Q1525.72 1846.79 1533.4 1846.79 Z" fill="#000000" fill-rule="nonzero" fill-opacity="1" /><path clip-path="url(#clip270)" d="M1585.85 1877.95 L1585.85 1896.86 L1579.96 1896.86 L1579.96 1847.65 L1585.85 1847.65 L1585.85 1853.06 Q1587.7 1849.88 1590.5 1848.35 Q1593.33 1846.79 1597.24 1846.79 Q1603.74 1846.79 1607.78 1851.95 Q1611.85 1857.11 1611.85 1865.51 Q1611.85 1873.91 1607.78 1879.07 Q1603.74 1884.22 1597.24 1884.22 Q1593.33 1884.22 1590.5 1882.7 Q1587.7 1881.14 1585.85 1877.95 M1605.77 1865.51 Q1605.77 1859.05 1603.1 1855.39 Q1600.46 1851.7 1595.81 1851.7 Q1591.16 1851.7 1588.49 1855.39 Q1585.85 1859.05 1585.85 1865.51 Q1585.85 1871.97 1588.49 1875.66 Q1591.16 1879.32 1595.81 1879.32 Q1600.46 1879.32 1603.1 1875.66 Q1605.77 1871.97 1605.77 1865.51 Z" fill="#000000" fill-rule="nonzero" fill-opacity="1" /><path clip-path="url(#clip270)" d="M1621.56 1833.78 L1627.42 1833.78 L1627.42 1883.3 L1621.56 1883.3 L1621.56 1833.78 Z" fill="#000000" fill-rule="nonzero" fill-opacity="1" /><path clip-path="url(#clip270)" d="M1655.87 1865.38 Q1648.77 1865.38 1646.04 1867 Q1643.3 1868.63 1643.3 1872.54 Q1643.3 1875.66 1645.34 1877.51 Q1647.41 1879.32 1650.94 1879.32 Q1655.81 1879.32 1658.74 1875.88 Q1661.7 1872.42 1661.7 1866.69 L1661.7 1865.38 L1655.87 1865.38 M1667.55 1862.96 L1667.55 1883.3 L1661.7 1883.3 L1661.7 1877.89 Q1659.69 1881.14 1656.7 1882.7 Q1653.71 1884.22 1649.38 1884.22 Q1643.9 1884.22 1640.66 1881.17 Q1637.44 1878.08 1637.44 1872.92 Q1637.44 1866.91 1641.45 1863.85 Q1645.5 1860.8 1653.48 1860.8 L1661.7 1860.8 L1661.7 1860.23 Q1661.7 1856.18 1659.02 1853.99 Q1656.38 1851.76 1651.57 1851.76 Q1648.52 1851.76 1645.62 1852.49 Q1642.73 1853.22 1640.05 1854.69 L1640.05 1849.28 Q1643.27 1848.03 1646.29 1847.43 Q1649.32 1846.79 1652.18 1846.79 Q1659.91 1846.79 1663.73 1850.8 Q1667.55 1854.81 1667.55 1862.96 Z" fill="#000000" fill-rule="nonzero" fill-opacity="1" /><path clip-path="url(#clip270)" d="M1709.25 1861.78 L1709.25 1883.3 L1703.39 1883.3 L1703.39 1861.98 Q1703.39 1856.92 1701.42 1854.4 Q1699.45 1851.89 1695.5 1851.89 Q1690.76 1851.89 1688.02 1854.91 Q1685.28 1857.93 1685.28 1863.15 L1685.28 1883.3 L1679.39 1883.3 L1679.39 1847.65 L1685.28 1847.65 L1685.28 1853.19 Q1687.38 1849.98 1690.21 1848.39 Q1693.08 1846.79 1696.8 1846.79 Q1702.95 1846.79 1706.1 1850.61 Q1709.25 1854.4 1709.25 1861.78 Z" fill="#000000" fill-rule="nonzero" fill-opacity="1" /><path clip-path="url(#clip270)" d="M1726.72 1837.53 L1726.72 1847.65 L1738.79 1847.65 L1738.79 1852.2 L1726.72 1852.2 L1726.72 1871.56 Q1726.72 1875.92 1727.9 1877.16 Q1729.11 1878.4 1732.77 1878.4 L1738.79 1878.4 L1738.79 1883.3 L1732.77 1883.3 Q1725.99 1883.3 1723.41 1880.79 Q1720.83 1878.24 1720.83 1871.56 L1720.83 1852.2 L1716.54 1852.2 L1716.54 1847.65 L1720.83 1847.65 L1720.83 1837.53 L1726.72 1837.53 Z" fill="#000000" fill-rule="nonzero" fill-opacity="1" /><path clip-path="url(#clip270)" d="M1781.28 1833.84 Q1777.01 1841.16 1774.94 1848.32 Q1772.87 1855.48 1772.87 1862.84 Q1772.87 1870.19 1774.94 1877.41 Q1777.04 1884.61 1781.28 1891.89 L1776.18 1891.89 Q1771.41 1884.41 1769.02 1877.19 Q1766.67 1869.96 1766.67 1862.84 Q1766.67 1855.74 1769.02 1848.54 Q1771.38 1841.35 1776.18 1833.84 L1781.28 1833.84 Z" fill="#000000" fill-rule="nonzero" fill-opacity="1" /><path clip-path="url(#clip270)" d="M1789.23 1847.65 L1795.09 1847.65 L1802.41 1875.47 L1809.7 1847.65 L1816.61 1847.65 L1823.93 1875.47 L1831.22 1847.65 L1837.07 1847.65 L1827.75 1883.3 L1820.84 1883.3 L1813.17 1854.08 L1805.47 1883.3 L1798.56 1883.3 L1789.23 1847.65 Z" fill="#000000" fill-rule="nonzero" fill-opacity="1" /><path clip-path="url(#clip270)" d="M1845.03 1833.84 L1850.12 1833.84 Q1854.9 1841.35 1857.25 1848.54 Q1859.64 1855.74 1859.64 1862.84 Q1859.64 1869.96 1857.25 1877.19 Q1854.9 1884.41 1850.12 1891.89 L1845.03 1891.89 Q1849.26 1884.61 1851.33 1877.41 Q1853.43 1870.19 1853.43 1862.84 Q1853.43 1855.48 1851.33 1848.32 Q1849.26 1841.16 1845.03 1833.84 Z" fill="#000000" fill-rule="nonzero" fill-opacity="1" /><polyline clip-path="url(#clip270)" style="stroke:#000000; stroke-linecap:round; stroke-linejoin:round; stroke-width:4; stroke-opacity:1; fill:none" points="364.571,1734.12 364.571,47.2441 "/>
<polyline clip-path="url(#clip270)" style="stroke:#000000; stroke-linecap:round; stroke-linejoin:round; stroke-width:4; stroke-opacity:1; fill:none" points="345.673,1155.91 383.468,1155.91 "/>
<polyline clip-path="url(#clip270)" style="stroke:#000000; stroke-linecap:round; stroke-linejoin:round; stroke-width:4; stroke-opacity:1; fill:none" points="345.673,625.449 383.468,625.449 "/>
<polyline clip-path="url(#clip270)" style="stroke:#000000; stroke-linecap:round; stroke-linejoin:round; stroke-width:4; stroke-opacity:1; fill:none" points="345.673,94.9858 383.468,94.9858 "/>
<path clip-path="url(#clip270)" d="M272.955 1169.26 L280.593 1169.26 L280.593 1142.89 L272.283 1144.56 L272.283 1140.3 L280.547 1138.63 L285.223 1138.63 L285.223 1169.26 L292.862 1169.26 L292.862 1173.19 L272.955 1173.19 L272.955 1169.26 Z" fill="#000000" fill-rule="nonzero" fill-opacity="1" /><path clip-path="url(#clip270)" d="M312.306 1141.71 Q308.695 1141.71 306.866 1145.28 Q305.061 1148.82 305.061 1155.95 Q305.061 1163.05 306.866 1166.62 Q308.695 1170.16 312.306 1170.16 Q315.94 1170.16 317.746 1166.62 Q319.575 1163.05 319.575 1155.95 Q319.575 1148.82 317.746 1145.28 Q315.94 1141.71 312.306 1141.71 M312.306 1138.01 Q318.116 1138.01 321.172 1142.61 Q324.251 1147.2 324.251 1155.95 Q324.251 1164.67 321.172 1169.28 Q318.116 1173.86 312.306 1173.86 Q306.496 1173.86 303.417 1169.28 Q300.362 1164.67 300.362 1155.95 Q300.362 1147.2 303.417 1142.61 Q306.496 1138.01 312.306 1138.01 Z" fill="#000000" fill-rule="nonzero" fill-opacity="1" /><path clip-path="url(#clip270)" d="M276.172 638.794 L292.491 638.794 L292.491 642.729 L270.547 642.729 L270.547 638.794 Q273.209 636.039 277.792 631.41 Q282.399 626.757 283.579 625.414 Q285.825 622.891 286.704 621.155 Q287.607 619.396 287.607 617.706 Q287.607 614.951 285.663 613.215 Q283.741 611.479 280.64 611.479 Q278.441 611.479 275.987 612.243 Q273.556 613.007 270.779 614.558 L270.779 609.836 Q273.603 608.701 276.056 608.123 Q278.51 607.544 280.547 607.544 Q285.917 607.544 289.112 610.229 Q292.306 612.914 292.306 617.405 Q292.306 619.535 291.496 621.456 Q290.709 623.354 288.603 625.947 Q288.024 626.618 284.922 629.836 Q281.82 633.03 276.172 638.794 Z" fill="#000000" fill-rule="nonzero" fill-opacity="1" /><path clip-path="url(#clip270)" d="M312.306 611.248 Q308.695 611.248 306.866 614.812 Q305.061 618.354 305.061 625.484 Q305.061 632.59 306.866 636.155 Q308.695 639.697 312.306 639.697 Q315.94 639.697 317.746 636.155 Q319.575 632.59 319.575 625.484 Q319.575 618.354 317.746 614.812 Q315.94 611.248 312.306 611.248 M312.306 607.544 Q318.116 607.544 321.172 612.15 Q324.251 616.734 324.251 625.484 Q324.251 634.21 321.172 638.817 Q318.116 643.4 312.306 643.4 Q306.496 643.4 303.417 638.817 Q300.362 634.21 300.362 625.484 Q300.362 616.734 303.417 612.15 Q306.496 607.544 312.306 607.544 Z" fill="#000000" fill-rule="nonzero" fill-opacity="1" /><path clip-path="url(#clip270)" d="M286.311 93.6316 Q289.667 94.3492 291.542 96.6177 Q293.441 98.8862 293.441 102.22 Q293.441 107.335 289.922 110.136 Q286.404 112.937 279.922 112.937 Q277.746 112.937 275.431 112.497 Q273.14 112.081 270.686 111.224 L270.686 106.71 Q272.63 107.845 274.945 108.423 Q277.26 109.002 279.783 109.002 Q284.181 109.002 286.473 107.266 Q288.788 105.53 288.788 102.22 Q288.788 99.164 286.635 97.451 Q284.505 95.7149 280.686 95.7149 L276.658 95.7149 L276.658 91.8724 L280.871 91.8724 Q284.32 91.8724 286.149 90.5066 Q287.978 89.1178 287.978 86.5252 Q287.978 83.8632 286.079 82.4511 Q284.204 81.0159 280.686 81.0159 Q278.765 81.0159 276.566 81.4326 Q274.367 81.8493 271.728 82.7289 L271.728 78.5623 Q274.39 77.8215 276.704 77.4512 Q279.042 77.0808 281.103 77.0808 Q286.427 77.0808 289.528 79.5113 Q292.63 81.9187 292.63 86.0391 Q292.63 88.9094 290.987 90.9002 Q289.343 92.8677 286.311 93.6316 Z" fill="#000000" fill-rule="nonzero" fill-opacity="1" /><path clip-path="url(#clip270)" d="M312.306 80.7845 Q308.695 80.7845 306.866 84.3493 Q305.061 87.8909 305.061 95.0205 Q305.061 102.127 306.866 105.692 Q308.695 109.233 312.306 109.233 Q315.94 109.233 317.746 105.692 Q319.575 102.127 319.575 95.0205 Q319.575 87.8909 317.746 84.3493 Q315.94 80.7845 312.306 80.7845 M312.306 77.0808 Q318.116 77.0808 321.172 81.6872 Q324.251 86.2705 324.251 95.0205 Q324.251 103.747 321.172 108.354 Q318.116 112.937 312.306 112.937 Q306.496 112.937 303.417 108.354 Q300.362 103.747 300.362 95.0205 Q300.362 86.2705 303.417 81.6872 Q306.496 77.0808 312.306 77.0808 Z" fill="#000000" fill-rule="nonzero" fill-opacity="1" /><path clip-path="url(#clip270)" d="M43.719 1268.88 Q43.719 1275.98 45.3422 1278.72 Q46.9655 1281.46 50.8804 1281.46 Q53.9996 1281.46 55.8457 1279.42 Q57.6599 1277.35 57.6599 1273.82 Q57.6599 1268.95 54.2224 1266.02 Q50.7531 1263.06 45.0239 1263.06 L43.719 1263.06 L43.719 1268.88 M41.3 1257.2 L61.6384 1257.2 L61.6384 1263.06 L56.2276 1263.06 Q59.4741 1265.06 61.0337 1268.06 Q62.5615 1271.05 62.5615 1275.38 Q62.5615 1280.85 59.5059 1284.1 Q56.4186 1287.31 51.2623 1287.31 Q45.2467 1287.31 42.1912 1283.3 Q39.1357 1279.26 39.1357 1271.27 L39.1357 1263.06 L38.5628 1263.06 Q34.5205 1263.06 32.3244 1265.73 Q30.0964 1268.37 30.0964 1273.18 Q30.0964 1276.24 30.8284 1279.13 Q31.5605 1282.03 33.0246 1284.7 L27.6137 1284.7 Q26.3724 1281.49 25.7677 1278.46 Q25.1311 1275.44 25.1311 1272.58 Q25.1311 1264.84 29.1415 1261.02 Q33.1519 1257.2 41.3 1257.2 Z" fill="#000000" fill-rule="nonzero" fill-opacity="1" /><path clip-path="url(#clip270)" d="M27.3591 1219.49 L32.8336 1219.49 Q31.465 1221.97 30.7966 1224.48 Q30.0964 1226.96 30.0964 1229.51 Q30.0964 1235.21 33.7248 1238.36 Q37.3214 1241.51 43.8463 1241.51 Q50.3711 1241.51 53.9996 1238.36 Q57.5962 1235.21 57.5962 1229.51 Q57.5962 1226.96 56.9278 1224.48 Q56.2276 1221.97 54.859 1219.49 L60.2698 1219.49 Q61.4156 1221.94 61.9886 1224.58 Q62.5615 1227.19 62.5615 1230.15 Q62.5615 1238.2 57.5007 1242.94 Q52.44 1247.69 43.8463 1247.69 Q35.1253 1247.69 30.1282 1242.91 Q25.1311 1238.1 25.1311 1229.77 Q25.1311 1227.06 25.704 1224.48 Q26.2451 1221.9 27.3591 1219.49 Z" fill="#000000" fill-rule="nonzero" fill-opacity="1" /><path clip-path="url(#clip270)" d="M31.465 1188.64 Q30.8921 1189.63 30.6375 1190.81 Q30.351 1191.95 30.351 1193.35 Q30.351 1198.32 33.5975 1200.99 Q36.8122 1203.63 42.8596 1203.63 L61.6384 1203.63 L61.6384 1209.52 L25.9905 1209.52 L25.9905 1203.63 L31.5287 1203.63 Q28.2821 1201.79 26.7225 1198.83 Q25.1311 1195.87 25.1311 1191.64 Q25.1311 1191.03 25.2266 1190.3 Q25.2903 1189.57 25.4494 1188.68 L31.465 1188.64 Z" fill="#000000" fill-rule="nonzero" fill-opacity="1" /><path clip-path="url(#clip270)" d="M42.3504 1153.44 L45.2149 1153.44 L45.2149 1180.37 Q51.2623 1179.99 54.4452 1176.74 Q57.5962 1173.46 57.5962 1167.64 Q57.5962 1164.26 56.7687 1161.11 Q55.9411 1157.93 54.2861 1154.81 L59.8242 1154.81 Q61.161 1157.96 61.8612 1161.27 Q62.5615 1164.58 62.5615 1167.99 Q62.5615 1176.52 57.5962 1181.51 Q52.631 1186.48 44.1646 1186.48 Q35.4117 1186.48 30.2873 1181.77 Q25.1311 1177.03 25.1311 1169.01 Q25.1311 1161.81 29.7781 1157.64 Q34.3932 1153.44 42.3504 1153.44 M40.6316 1159.3 Q35.8255 1159.36 32.9609 1162 Q30.0964 1164.61 30.0964 1168.94 Q30.0964 1173.84 32.8654 1176.8 Q35.6345 1179.73 40.6634 1180.18 L40.6316 1159.3 Z" fill="#000000" fill-rule="nonzero" fill-opacity="1" /><path clip-path="url(#clip270)" d="M27.0408 1121.1 L32.579 1121.1 Q31.3059 1123.59 30.6693 1126.26 Q30.0327 1128.93 30.0327 1131.8 Q30.0327 1136.16 31.3695 1138.35 Q32.7063 1140.52 35.3799 1140.52 Q37.4169 1140.52 38.5946 1138.96 Q39.7404 1137.4 40.7908 1132.69 L41.2364 1130.68 Q42.5732 1124.45 45.0239 1121.84 Q47.4429 1119.19 51.8034 1119.19 Q56.7687 1119.19 59.6651 1123.14 Q62.5615 1127.06 62.5615 1133.93 Q62.5615 1136.79 61.9886 1139.91 Q61.4475 1143 60.3335 1146.44 L54.2861 1146.44 Q55.973 1143.19 56.8323 1140.04 Q57.6599 1136.89 57.6599 1133.8 Q57.6599 1129.67 56.2594 1127.44 Q54.8271 1125.21 52.249 1125.21 Q49.8619 1125.21 48.5887 1126.83 Q47.3156 1128.42 46.1379 1133.87 L45.6605 1135.9 Q44.5147 1141.35 42.1594 1143.77 Q39.7722 1146.18 35.6345 1146.18 Q30.6056 1146.18 27.8684 1142.62 Q25.1311 1139.05 25.1311 1132.5 Q25.1311 1129.25 25.6085 1126.39 Q26.086 1123.52 27.0408 1121.1 Z" fill="#000000" fill-rule="nonzero" fill-opacity="1" /><path clip-path="url(#clip270)" d="M30.0964 1075.33 Q30.0964 1080.04 33.7885 1082.78 Q37.4488 1085.52 43.8463 1085.52 Q50.2438 1085.52 53.9359 1082.81 Q57.5962 1080.08 57.5962 1075.33 Q57.5962 1070.65 53.9041 1067.92 Q50.212 1065.18 43.8463 1065.18 Q37.5124 1065.18 33.8203 1067.92 Q30.0964 1070.65 30.0964 1075.33 M25.1311 1075.33 Q25.1311 1067.69 30.0964 1063.33 Q35.0616 1058.97 43.8463 1058.97 Q52.5991 1058.97 57.5962 1063.33 Q62.5615 1067.69 62.5615 1075.33 Q62.5615 1083 57.5962 1087.36 Q52.5991 1091.69 43.8463 1091.69 Q35.0616 1091.69 30.0964 1087.36 Q25.1311 1083 25.1311 1075.33 Z" fill="#000000" fill-rule="nonzero" fill-opacity="1" /><path clip-path="url(#clip270)" d="M12.1132 1031.22 L16.983 1031.22 L16.983 1036.82 Q16.983 1039.97 18.2562 1041.21 Q19.5293 1042.42 22.8395 1042.42 L25.9905 1042.42 L25.9905 1032.78 L30.542 1032.78 L30.542 1042.42 L61.6384 1042.42 L61.6384 1048.31 L30.542 1048.31 L30.542 1053.91 L25.9905 1053.91 L25.9905 1048.31 L23.5079 1048.31 Q17.5559 1048.31 14.8505 1045.54 Q12.1132 1042.77 12.1132 1036.76 L12.1132 1031.22 Z" fill="#000000" fill-rule="nonzero" fill-opacity="1" /><path clip-path="url(#clip270)" d="M27.3591 979.944 L32.8336 979.944 Q31.465 982.426 30.7966 984.941 Q30.0964 987.423 30.0964 989.97 Q30.0964 995.667 33.7248 998.818 Q37.3214 1001.97 43.8463 1001.97 Q50.3711 1001.97 53.9996 998.818 Q57.5962 995.667 57.5962 989.97 Q57.5962 987.423 56.9278 984.941 Q56.2276 982.426 54.859 979.944 L60.2698 979.944 Q61.4156 982.394 61.9886 985.036 Q62.5615 987.646 62.5615 990.606 Q62.5615 998.659 57.5007 1003.4 Q52.44 1008.14 43.8463 1008.14 Q35.1253 1008.14 30.1282 1003.37 Q25.1311 998.563 25.1311 990.224 Q25.1311 987.519 25.704 984.941 Q26.2451 982.363 27.3591 979.944 Z" fill="#000000" fill-rule="nonzero" fill-opacity="1" /><path clip-path="url(#clip270)" d="M30.0964 955.945 Q30.0964 960.656 33.7885 963.393 Q37.4488 966.13 43.8463 966.13 Q50.2438 966.13 53.9359 963.425 Q57.5962 960.687 57.5962 955.945 Q57.5962 951.266 53.9041 948.529 Q50.212 945.792 43.8463 945.792 Q37.5124 945.792 33.8203 948.529 Q30.0964 951.266 30.0964 955.945 M25.1311 955.945 Q25.1311 948.306 30.0964 943.946 Q35.0616 939.585 43.8463 939.585 Q52.5991 939.585 57.5962 943.946 Q62.5615 948.306 62.5615 955.945 Q62.5615 963.616 57.5962 967.976 Q52.5991 972.305 43.8463 972.305 Q35.0616 972.305 30.0964 967.976 Q25.1311 963.616 25.1311 955.945 Z" fill="#000000" fill-rule="nonzero" fill-opacity="1" /><path clip-path="url(#clip270)" d="M31.465 909.221 Q30.8921 910.207 30.6375 911.385 Q30.351 912.531 30.351 913.931 Q30.351 918.897 33.5975 921.57 Q36.8122 924.212 42.8596 924.212 L61.6384 924.212 L61.6384 930.1 L25.9905 930.1 L25.9905 924.212 L31.5287 924.212 Q28.2821 922.366 26.7225 919.406 Q25.1311 916.446 25.1311 912.213 Q25.1311 911.608 25.2266 910.876 Q25.2903 910.144 25.4494 909.252 L31.465 909.221 Z" fill="#000000" fill-rule="nonzero" fill-opacity="1" /><path clip-path="url(#clip270)" d="M40.1224 874.591 L61.6384 874.591 L61.6384 880.448 L40.3133 880.448 Q35.2526 880.448 32.7381 882.421 Q30.2237 884.394 30.2237 888.341 Q30.2237 893.084 33.2474 895.821 Q36.2711 898.558 41.491 898.558 L61.6384 898.558 L61.6384 904.446 L25.9905 904.446 L25.9905 898.558 L31.5287 898.558 Q28.314 896.457 26.7225 893.625 Q25.1311 890.76 25.1311 887.036 Q25.1311 880.893 28.9505 877.742 Q32.7381 874.591 40.1224 874.591 Z" fill="#000000" fill-rule="nonzero" fill-opacity="1" /><path clip-path="url(#clip270)" d="M15.869 836.397 L25.9905 836.397 L25.9905 824.334 L30.542 824.334 L30.542 836.397 L49.8937 836.397 Q54.2542 836.397 55.4955 835.219 Q56.7368 834.01 56.7368 830.35 L56.7368 824.334 L61.6384 824.334 L61.6384 830.35 Q61.6384 837.129 59.124 839.707 Q56.5777 842.285 49.8937 842.285 L30.542 842.285 L30.542 846.582 L25.9905 846.582 L25.9905 842.285 L15.869 842.285 L15.869 836.397 Z" fill="#000000" fill-rule="nonzero" fill-opacity="1" /><path clip-path="url(#clip270)" d="M30.0964 802.818 Q30.0964 807.528 33.7885 810.266 Q37.4488 813.003 43.8463 813.003 Q50.2438 813.003 53.9359 810.298 Q57.5962 807.56 57.5962 802.818 Q57.5962 798.139 53.9041 795.402 Q50.212 792.665 43.8463 792.665 Q37.5124 792.665 33.8203 795.402 Q30.0964 798.139 30.0964 802.818 M25.1311 802.818 Q25.1311 795.179 30.0964 790.819 Q35.0616 786.458 43.8463 786.458 Q52.5991 786.458 57.5962 790.819 Q62.5615 795.179 62.5615 802.818 Q62.5615 810.489 57.5962 814.849 Q52.5991 819.178 43.8463 819.178 Q35.0616 819.178 30.0964 814.849 Q25.1311 810.489 25.1311 802.818 Z" fill="#000000" fill-rule="nonzero" fill-opacity="1" /><path clip-path="url(#clip270)" d="M56.2912 750.364 L75.1974 750.364 L75.1974 756.253 L25.9905 756.253 L25.9905 750.364 L31.4013 750.364 Q28.2185 748.518 26.6907 745.717 Q25.1311 742.885 25.1311 738.97 Q25.1311 732.477 30.2873 728.435 Q35.4436 724.361 43.8463 724.361 Q52.249 724.361 57.4052 728.435 Q62.5615 732.477 62.5615 738.97 Q62.5615 742.885 61.0337 745.717 Q59.4741 748.518 56.2912 750.364 M43.8463 730.44 Q37.3851 730.44 33.7248 733.113 Q30.0327 735.755 30.0327 740.402 Q30.0327 745.049 33.7248 747.723 Q37.3851 750.364 43.8463 750.364 Q50.3075 750.364 53.9996 747.723 Q57.6599 745.049 57.6599 740.402 Q57.6599 735.755 53.9996 733.113 Q50.3075 730.44 43.8463 730.44 Z" fill="#000000" fill-rule="nonzero" fill-opacity="1" /><path clip-path="url(#clip270)" d="M12.1132 714.653 L12.1132 708.796 L61.6384 708.796 L61.6384 714.653 L12.1132 714.653 Z" fill="#000000" fill-rule="nonzero" fill-opacity="1" /><path clip-path="url(#clip270)" d="M43.719 680.342 Q43.719 687.439 45.3422 690.177 Q46.9655 692.914 50.8804 692.914 Q53.9996 692.914 55.8457 690.877 Q57.6599 688.808 57.6599 685.275 Q57.6599 680.405 54.2224 677.477 Q50.7531 674.517 45.0239 674.517 L43.719 674.517 L43.719 680.342 M41.3 668.661 L61.6384 668.661 L61.6384 674.517 L56.2276 674.517 Q59.4741 676.522 61.0337 679.514 Q62.5615 682.506 62.5615 686.835 Q62.5615 692.309 59.5059 695.556 Q56.4186 698.77 51.2623 698.77 Q45.2467 698.77 42.1912 694.76 Q39.1357 690.718 39.1357 682.729 L39.1357 674.517 L38.5628 674.517 Q34.5205 674.517 32.3244 677.191 Q30.0964 679.832 30.0964 684.639 Q30.0964 687.694 30.8284 690.59 Q31.5605 693.487 33.0246 696.16 L27.6137 696.16 Q26.3724 692.946 25.7677 689.922 Q25.1311 686.898 25.1311 684.034 Q25.1311 676.299 29.1415 672.48 Q33.1519 668.661 41.3 668.661 Z" fill="#000000" fill-rule="nonzero" fill-opacity="1" /><path clip-path="url(#clip270)" d="M40.1224 626.965 L61.6384 626.965 L61.6384 632.822 L40.3133 632.822 Q35.2526 632.822 32.7381 634.795 Q30.2237 636.768 30.2237 640.715 Q30.2237 645.458 33.2474 648.195 Q36.2711 650.932 41.491 650.932 L61.6384 650.932 L61.6384 656.82 L25.9905 656.82 L25.9905 650.932 L31.5287 650.932 Q28.314 648.831 26.7225 645.999 Q25.1311 643.134 25.1311 639.41 Q25.1311 633.267 28.9505 630.116 Q32.7381 626.965 40.1224 626.965 Z" fill="#000000" fill-rule="nonzero" fill-opacity="1" /><path clip-path="url(#clip270)" d="M15.869 609.491 L25.9905 609.491 L25.9905 597.428 L30.542 597.428 L30.542 609.491 L49.8937 609.491 Q54.2542 609.491 55.4955 608.314 Q56.7368 607.104 56.7368 603.444 L56.7368 597.428 L61.6384 597.428 L61.6384 603.444 Q61.6384 610.223 59.124 612.802 Q56.5777 615.38 49.8937 615.38 L30.542 615.38 L30.542 619.676 L25.9905 619.676 L25.9905 615.38 L15.869 615.38 L15.869 609.491 Z" fill="#000000" fill-rule="nonzero" fill-opacity="1" /><path clip-path="url(#clip270)" d="M12.1769 554.937 Q19.4975 559.202 26.6589 561.271 Q33.8203 563.34 41.1727 563.34 Q48.5251 563.34 55.7502 561.271 Q62.9434 559.17 70.2321 554.937 L70.2321 560.03 Q62.7524 564.804 55.5274 567.191 Q48.3023 569.547 41.1727 569.547 Q34.0749 569.547 26.8817 567.191 Q19.6884 564.836 12.1769 560.03 L12.1769 554.937 Z" fill="#000000" fill-rule="nonzero" fill-opacity="1" /><path clip-path="url(#clip270)" d="M27.3591 517.921 L32.8336 517.921 Q31.465 520.403 30.7966 522.918 Q30.0964 525.4 30.0964 527.947 Q30.0964 533.644 33.7248 536.795 Q37.3214 539.946 43.8463 539.946 Q50.3711 539.946 53.9996 536.795 Q57.5962 533.644 57.5962 527.947 Q57.5962 525.4 56.9278 522.918 Q56.2276 520.403 54.859 517.921 L60.2698 517.921 Q61.4156 520.371 61.9886 523.013 Q62.5615 525.623 62.5615 528.583 Q62.5615 536.636 57.5007 541.378 Q52.44 546.121 43.8463 546.121 Q35.1253 546.121 30.1282 541.346 Q25.1311 536.54 25.1311 528.201 Q25.1311 525.496 25.704 522.918 Q26.2451 520.34 27.3591 517.921 Z" fill="#000000" fill-rule="nonzero" fill-opacity="1" /><path clip-path="url(#clip270)" d="M12.1769 508.659 L12.1769 503.566 Q19.6884 498.792 26.8817 496.436 Q34.0749 494.049 41.1727 494.049 Q48.3023 494.049 55.5274 496.436 Q62.7524 498.792 70.2321 503.566 L70.2321 508.659 Q62.9434 504.425 55.7502 502.357 Q48.5251 500.256 41.1727 500.256 Q33.8203 500.256 26.6589 502.357 Q19.4975 504.425 12.1769 508.659 Z" fill="#000000" fill-rule="nonzero" fill-opacity="1" /><path clip-path="url(#clip272)" d="M364.571 1686.38 L2132.78 1686.38 L1425.5 625.449 L364.571 94.9858 L364.571 1686.38 L364.571 1686.38  Z" fill="#009af9" fill-rule="evenodd" fill-opacity="1"/>
<polyline clip-path="url(#clip272)" style="stroke:#000000; stroke-linecap:round; stroke-linejoin:round; stroke-width:4; stroke-opacity:1; fill:none" points="364.571,1686.38 2132.78,1686.38 1425.5,625.449 364.571,94.9858 364.571,1686.38 "/>
<polyline clip-path="url(#clip272)" style="stroke:#e26f46; stroke-linecap:round; stroke-linejoin:round; stroke-width:4; stroke-opacity:1; fill:none" points="364.571,271.807 2486.42,1686.38 "/>
<path clip-path="url(#clip270)" d="M1901.91 207.153 L2559.74 207.153 L2559.74 103.473 L1901.91 103.473  Z" fill="#ffffff" fill-rule="evenodd" fill-opacity="1"/>
<polyline clip-path="url(#clip270)" style="stroke:#000000; stroke-linecap:round; stroke-linejoin:round; stroke-width:4; stroke-opacity:1; fill:none" points="1901.91,207.153 2559.74,207.153 2559.74,103.473 1901.91,103.473 1901.91,207.153 "/>
<polyline clip-path="url(#clip270)" style="stroke:#e26f46; stroke-linecap:round; stroke-linejoin:round; stroke-width:4; stroke-opacity:1; fill:none" points="1928.92,155.313 2090.95,155.313 "/>
<path clip-path="url(#clip270)" d="M2117.96 166.259 Q2117.96 165.393 2118.03 165.135 Q2118.12 164.878 2118.5 164.479 L2127.7 154.22 Q2132.74 148.552 2132.74 143.61 Q2132.74 140.401 2131.05 138.106 Q2129.39 135.81 2126.32 135.81 Q2124.21 135.81 2122.43 137.098 Q2120.65 138.387 2119.83 140.682 Q2119.97 140.635 2120.47 140.635 Q2121.66 140.635 2122.32 141.385 Q2123 142.134 2123 143.141 Q2123 144.43 2122.15 145.062 Q2121.33 145.671 2120.51 145.671 Q2120.18 145.671 2119.74 145.601 Q2119.32 145.531 2118.64 144.875 Q2117.96 144.195 2117.96 143.001 Q2117.96 139.652 2120.49 136.981 Q2123.04 134.311 2126.93 134.311 Q2131.33 134.311 2134.21 136.935 Q2137.12 139.534 2137.12 143.61 Q2137.12 145.039 2136.67 146.35 Q2136.25 147.639 2135.67 148.646 Q2135.1 149.653 2133.56 151.269 Q2132.01 152.885 2130.77 154.033 Q2129.53 155.181 2126.74 157.617 L2121.66 162.559 L2130.3 162.559 Q2134.52 162.559 2134.85 162.184 Q2135.32 161.505 2135.9 157.921 L2137.12 157.921 L2135.76 166.259 L2117.96 166.259 Z" fill="#000000" fill-rule="nonzero" fill-opacity="1" /><path clip-path="url(#clip270)" d="M2141.91 150.918 Q2141.91 143.868 2143.69 140.026 Q2146.17 134.311 2152.03 134.311 Q2153.27 134.311 2154.56 134.663 Q2155.87 134.99 2157.51 136.279 Q2159.17 137.567 2160.18 139.675 Q2162.1 143.75 2162.1 150.918 Q2162.1 157.921 2160.32 161.739 Q2157.72 167.313 2151.98 167.313 Q2149.82 167.313 2147.62 166.213 Q2145.44 165.112 2144.06 162.465 Q2141.91 158.507 2141.91 150.918 M2145.89 150.332 Q2145.89 157.57 2146.41 160.451 Q2146.99 163.566 2148.58 164.924 Q2150.2 166.259 2151.98 166.259 Q2153.9 166.259 2155.49 164.831 Q2157.11 163.378 2157.6 160.263 Q2158.14 157.195 2158.12 150.332 Q2158.12 143.657 2157.65 140.987 Q2157.02 137.871 2155.33 136.63 Q2153.67 135.365 2151.98 135.365 Q2151.35 135.365 2150.67 135.553 Q2150.01 135.74 2149.05 136.279 Q2148.09 136.817 2147.34 138.153 Q2146.62 139.488 2146.26 141.502 Q2145.89 144.102 2145.89 150.332 Z" fill="#000000" fill-rule="nonzero" fill-opacity="1" /><path clip-path="url(#clip270)" d="M2165.86 150.918 Q2165.86 143.868 2167.64 140.026 Q2170.12 134.311 2175.97 134.311 Q2177.22 134.311 2178.5 134.663 Q2179.82 134.99 2181.46 136.279 Q2183.12 137.567 2184.13 139.675 Q2186.05 143.75 2186.05 150.918 Q2186.05 157.921 2184.27 161.739 Q2181.67 167.313 2175.93 167.313 Q2173.77 167.313 2171.57 166.213 Q2169.39 165.112 2168.01 162.465 Q2165.86 158.507 2165.86 150.918 M2169.84 150.332 Q2169.84 157.57 2170.35 160.451 Q2170.94 163.566 2172.53 164.924 Q2174.15 166.259 2175.93 166.259 Q2177.85 166.259 2179.44 164.831 Q2181.06 163.378 2181.55 160.263 Q2182.09 157.195 2182.06 150.332 Q2182.06 143.657 2181.6 140.987 Q2180.96 137.871 2179.28 136.63 Q2177.61 135.365 2175.93 135.365 Q2175.3 135.365 2174.62 135.553 Q2173.96 135.74 2173 136.279 Q2172.04 136.817 2171.29 138.153 Q2170.56 139.488 2170.21 141.502 Q2169.84 144.102 2169.84 150.332 Z" fill="#000000" fill-rule="nonzero" fill-opacity="1" /><path clip-path="url(#clip270)" d="M2212.74 148.224 Q2212.74 149.536 2211.92 150.285 Q2211.1 151.011 2210.16 151.011 Q2209.27 151.011 2208.8 150.496 Q2208.33 149.981 2208.33 149.325 Q2208.33 148.435 2208.99 147.662 Q2209.64 146.889 2210.63 146.725 Q2209.67 146.116 2208.24 146.116 Q2207.3 146.116 2206.48 146.608 Q2205.69 147.1 2205.19 147.732 Q2204.72 148.365 2204.3 149.278 Q2203.91 150.168 2203.74 150.707 Q2203.6 151.222 2203.48 151.784 L2201.84 158.343 Q2201.05 161.458 2201.05 162.559 Q2201.05 163.917 2201.7 164.831 Q2202.36 165.721 2203.67 165.721 Q2204.19 165.721 2204.77 165.58 Q2205.36 165.416 2206.11 164.995 Q2206.88 164.55 2207.56 163.894 Q2208.26 163.215 2208.94 162.067 Q2209.62 160.919 2210.07 159.444 Q2210.21 158.928 2210.67 158.928 Q2211.26 158.928 2211.26 159.397 Q2211.26 159.795 2210.93 160.638 Q2210.63 161.458 2209.95 162.535 Q2209.29 163.589 2208.43 164.55 Q2207.56 165.487 2206.27 166.142 Q2204.98 166.798 2203.58 166.798 Q2201.56 166.798 2200.23 165.721 Q2198.89 164.643 2198.4 163.144 Q2198.28 163.355 2198.12 163.636 Q2197.96 163.917 2197.46 164.55 Q2197 165.159 2196.46 165.627 Q2195.92 166.072 2195.07 166.423 Q2194.26 166.798 2193.36 166.798 Q2192.24 166.798 2191.23 166.47 Q2190.25 166.142 2189.55 165.393 Q2188.84 164.643 2188.84 163.613 Q2188.84 162.465 2189.62 161.669 Q2190.41 160.849 2191.49 160.849 Q2192.17 160.849 2192.71 161.247 Q2193.27 161.645 2193.27 162.512 Q2193.27 163.472 2192.62 164.198 Q2191.96 164.924 2191.02 165.112 Q2191.98 165.721 2193.41 165.721 Q2194.96 165.721 2196.18 164.362 Q2197.39 163.004 2197.98 160.732 Q2199.43 155.274 2199.99 152.838 Q2200.56 150.379 2200.56 149.325 Q2200.56 148.341 2200.3 147.662 Q2200.04 146.983 2199.6 146.678 Q2199.17 146.35 2198.78 146.233 Q2198.4 146.116 2197.98 146.116 Q2197.28 146.116 2196.48 146.397 Q2195.71 146.678 2194.77 147.334 Q2193.86 147.967 2192.99 149.278 Q2192.12 150.59 2191.54 152.393 Q2191.42 152.932 2190.91 152.932 Q2190.34 152.909 2190.34 152.44 Q2190.34 152.042 2190.65 151.222 Q2190.98 150.379 2191.63 149.325 Q2192.31 148.271 2193.18 147.334 Q2194.07 146.374 2195.36 145.718 Q2196.67 145.062 2198.07 145.062 Q2198.71 145.062 2199.31 145.203 Q2199.95 145.32 2200.7 145.671 Q2201.47 146.022 2202.15 146.795 Q2202.83 147.568 2203.25 148.693 Q2203.53 148.154 2203.91 147.639 Q2204.3 147.123 2204.91 146.491 Q2205.54 145.835 2206.41 145.46 Q2207.3 145.062 2208.29 145.062 Q2209.25 145.062 2210.18 145.32 Q2211.12 145.554 2211.92 146.327 Q2212.74 147.076 2212.74 148.224 Z" fill="#000000" fill-rule="nonzero" fill-opacity="1" /><path clip-path="url(#clip270)" d="M2230.42 154.853 Q2229.32 154.853 2229.32 154.267 Q2229.32 153.682 2230.47 153.682 Q2230.61 153.682 2230.84 153.705 Q2231.1 153.728 2231.15 153.728 L2244.66 153.728 L2244.66 140.167 Q2244.66 140.12 2244.64 139.909 Q2244.62 139.675 2244.62 139.534 Q2244.62 138.387 2245.18 138.387 Q2245.76 138.387 2245.76 139.534 L2245.76 153.728 L2259.3 153.728 Q2259.35 153.728 2259.58 153.705 Q2259.82 153.682 2259.96 153.682 Q2261.06 153.682 2261.06 154.267 Q2261.08 154.853 2259.91 154.853 Q2259.77 154.853 2259.56 154.829 Q2259.35 154.806 2259.3 154.806 L2245.76 154.806 L2245.76 169.047 Q2245.76 170.148 2245.18 170.148 Q2244.62 170.148 2244.62 169 Q2244.62 168.859 2244.64 168.625 Q2244.66 168.414 2244.66 168.367 L2244.66 154.806 L2231.15 154.806 Q2231.1 154.806 2230.82 154.829 Q2230.56 154.853 2230.42 154.853 Z" fill="#000000" fill-rule="nonzero" fill-opacity="1" /><path clip-path="url(#clip270)" d="M2279.59 159.795 Q2279.59 158.366 2280.41 157.687 Q2281.23 157.008 2282.28 157.008 Q2283.38 157.008 2284.16 157.734 Q2284.95 158.436 2284.95 159.678 Q2284.95 161.013 2284.02 161.762 Q2283.1 162.512 2281.79 162.324 Q2282.94 164.245 2285.05 165.112 Q2287.18 165.978 2289.15 165.978 Q2291.21 165.978 2292.87 164.198 Q2294.56 162.418 2294.56 158.062 Q2294.56 154.361 2293.11 152.229 Q2291.68 150.098 2288.84 150.098 L2286.73 150.098 Q2286.01 150.098 2285.8 150.028 Q2285.59 149.957 2285.59 149.559 Q2285.59 149.091 2286.31 148.997 Q2287.04 148.997 2288.19 148.857 Q2290.97 148.763 2292.45 146.35 Q2293.78 144.102 2293.78 140.893 Q2293.78 137.965 2292.38 136.747 Q2291 135.506 2289.19 135.506 Q2287.51 135.506 2285.66 136.208 Q2283.81 136.911 2282.8 138.48 Q2285.77 138.48 2285.77 140.893 Q2285.77 141.947 2285.09 142.65 Q2284.44 143.329 2283.34 143.329 Q2282.28 143.329 2281.58 142.673 Q2280.88 141.994 2280.88 140.846 Q2280.88 138.106 2283.31 136.208 Q2285.77 134.311 2289.38 134.311 Q2292.94 134.311 2295.56 136.185 Q2298.21 138.059 2298.21 140.94 Q2298.21 143.774 2296.34 146.093 Q2294.46 148.412 2291.49 149.372 Q2295.14 150.098 2297.32 152.581 Q2299.5 155.04 2299.5 158.062 Q2299.5 161.809 2296.55 164.573 Q2293.6 167.313 2289.29 167.313 Q2285.31 167.313 2282.45 165.159 Q2279.59 163.004 2279.59 159.795 Z" fill="#000000" fill-rule="nonzero" fill-opacity="1" /><path clip-path="url(#clip270)" d="M2303.54 150.918 Q2303.54 143.868 2305.32 140.026 Q2307.8 134.311 2313.66 134.311 Q2314.9 134.311 2316.19 134.663 Q2317.5 134.99 2319.14 136.279 Q2320.8 137.567 2321.81 139.675 Q2323.73 143.75 2323.73 150.918 Q2323.73 157.921 2321.95 161.739 Q2319.35 167.313 2313.61 167.313 Q2311.46 167.313 2309.25 166.213 Q2307.08 165.112 2305.69 162.465 Q2303.54 158.507 2303.54 150.918 M2307.52 150.332 Q2307.52 157.57 2308.04 160.451 Q2308.62 163.566 2310.21 164.924 Q2311.83 166.259 2313.61 166.259 Q2315.53 166.259 2317.12 164.831 Q2318.74 163.378 2319.23 160.263 Q2319.77 157.195 2319.75 150.332 Q2319.75 143.657 2319.28 140.987 Q2318.65 137.871 2316.96 136.63 Q2315.3 135.365 2313.61 135.365 Q2312.98 135.365 2312.3 135.553 Q2311.64 135.74 2310.68 136.279 Q2309.72 136.817 2308.97 138.153 Q2308.25 139.488 2307.9 141.502 Q2307.52 144.102 2307.52 150.332 Z" fill="#000000" fill-rule="nonzero" fill-opacity="1" /><path clip-path="url(#clip270)" d="M2327.49 150.918 Q2327.49 143.868 2329.27 140.026 Q2331.75 134.311 2337.61 134.311 Q2338.85 134.311 2340.14 134.663 Q2341.45 134.99 2343.09 136.279 Q2344.75 137.567 2345.76 139.675 Q2347.68 143.75 2347.68 150.918 Q2347.68 157.921 2345.9 161.739 Q2343.3 167.313 2337.56 167.313 Q2335.4 167.313 2333.2 166.213 Q2331.02 165.112 2329.64 162.465 Q2327.49 158.507 2327.49 150.918 M2331.47 150.332 Q2331.47 157.57 2331.98 160.451 Q2332.57 163.566 2334.16 164.924 Q2335.78 166.259 2337.56 166.259 Q2339.48 166.259 2341.07 164.831 Q2342.69 163.378 2343.18 160.263 Q2343.72 157.195 2343.7 150.332 Q2343.7 143.657 2343.23 140.987 Q2342.59 137.871 2340.91 136.63 Q2339.25 135.365 2337.56 135.365 Q2336.93 135.365 2336.25 135.553 Q2335.59 135.74 2334.63 136.279 Q2333.67 136.817 2332.92 138.153 Q2332.19 139.488 2331.84 141.502 Q2331.47 144.102 2331.47 150.332 Z" fill="#000000" fill-rule="nonzero" fill-opacity="1" /><path clip-path="url(#clip270)" d="M2372.61 146.889 Q2372.61 147.217 2372.4 147.99 L2367.81 166.306 Q2366.8 170.382 2363.52 173.239 Q2360.27 176.097 2356.57 176.097 Q2354.34 176.097 2352.91 174.902 Q2351.48 173.731 2351.48 171.928 Q2351.48 170.335 2352.33 169.562 Q2353.17 168.812 2354.18 168.812 Q2354.5 168.812 2354.86 168.906 Q2355.21 169 2355.58 169.398 Q2355.96 169.796 2355.96 170.475 Q2355.96 171.576 2355 172.443 Q2354.53 172.841 2354.08 172.935 Q2353.66 173.029 2352.93 173.029 Q2353.22 173.684 2353.73 174.129 Q2354.25 174.574 2354.83 174.738 Q2355.42 174.926 2355.79 174.973 Q2356.19 175.043 2356.57 175.043 Q2359.56 175.043 2361.86 172.021 Q2362.54 171.108 2363.03 170.194 Q2363.55 169.304 2363.92 168.204 Q2364.29 167.126 2364.46 166.541 Q2364.65 165.955 2364.97 164.62 Q2362.8 166.798 2360.13 166.798 Q2359 166.798 2357.99 166.494 Q2357.01 166.189 2356.14 165.557 Q2355.28 164.901 2354.76 163.753 Q2354.27 162.606 2354.27 161.083 Q2354.27 159.467 2354.9 157.265 Q2355.53 155.064 2357.06 151.011 Q2357.88 148.739 2357.88 147.639 Q2357.88 147.1 2357.76 146.772 Q2357.64 146.421 2357.41 146.304 Q2357.17 146.163 2357.03 146.14 Q2356.92 146.116 2356.68 146.116 Q2355.3 146.116 2354.01 147.521 Q2352.72 148.927 2351.83 152.065 Q2351.65 152.651 2351.53 152.792 Q2351.41 152.932 2351.06 152.932 Q2350.48 152.909 2350.48 152.44 Q2350.48 152.253 2350.69 151.527 Q2350.9 150.777 2351.39 149.676 Q2351.9 148.552 2352.61 147.545 Q2353.31 146.514 2354.41 145.788 Q2355.53 145.062 2356.82 145.062 Q2358.58 145.062 2359.66 146.21 Q2360.76 147.334 2360.76 148.997 Q2360.76 149.676 2360.57 150.285 Q2360.41 150.871 2359.8 152.44 Q2357.34 158.764 2357.34 161.856 Q2357.34 162.606 2357.46 163.238 Q2357.6 163.847 2357.9 164.456 Q2358.2 165.041 2358.81 165.393 Q2359.45 165.721 2360.31 165.721 Q2361.41 165.721 2362.44 165.205 Q2363.5 164.667 2364.15 163.941 Q2364.83 163.215 2365.23 162.606 Q2365.65 161.973 2365.75 161.645 L2367.9 153.026 L2368.86 149.184 Q2369.31 147.1 2369.52 146.585 Q2369.8 146.093 2370.29 145.835 Q2370.78 145.577 2371.2 145.577 Q2371.79 145.577 2372.19 145.929 Q2372.61 146.28 2372.61 146.889 Z" fill="#000000" fill-rule="nonzero" fill-opacity="1" /><path clip-path="url(#clip270)" d="M2387.06 158.975 Q2387.1 158.389 2388.02 158.389 L2417.41 158.389 Q2418.79 158.389 2418.82 158.928 Q2418.82 159.514 2417.5 159.49 L2388.34 159.49 Q2387.06 159.514 2387.06 158.975 M2387.06 149.606 Q2387.06 149.021 2388.06 149.044 L2417.36 149.044 Q2418.79 149.044 2418.82 149.606 Q2418.82 150.145 2417.6 150.145 L2388.02 150.145 Q2387.06 150.145 2387.06 149.606 Z" fill="#000000" fill-rule="nonzero" fill-opacity="1" /><path clip-path="url(#clip270)" d="M2437.32 159.022 Q2437.32 153.658 2444.23 150.192 Q2441.26 148.177 2440.72 147.592 Q2438.61 145.25 2438.61 142.322 Q2438.61 138.972 2441.14 136.653 Q2443.69 134.311 2447.3 134.311 Q2450.74 134.311 2453.34 136.302 Q2455.94 138.293 2455.94 141.455 Q2455.94 145.905 2450.14 148.903 Q2453.98 151.292 2454.89 152.3 Q2457.23 154.9 2457.23 158.202 Q2457.23 162.043 2454.28 164.69 Q2451.33 167.313 2447.25 167.313 Q2443.27 167.313 2440.3 164.995 Q2437.32 162.676 2437.32 159.022 M2439.71 159.022 Q2439.71 161.997 2441.94 163.987 Q2444.19 165.978 2447.3 165.978 Q2450.32 165.978 2452.57 164.245 Q2454.84 162.512 2454.84 159.935 Q2454.84 158.928 2454.49 158.062 Q2454.16 157.195 2453.49 156.516 Q2452.83 155.813 2452.41 155.509 Q2452.01 155.181 2451.24 154.642 L2445.33 150.918 Q2439.71 154.033 2439.71 159.022 M2440.72 140.448 Q2440.72 142.743 2443.13 144.336 L2449.08 148.177 Q2453.84 145.39 2453.84 141.455 Q2453.84 138.902 2451.89 137.216 Q2449.95 135.506 2447.25 135.506 Q2444.61 135.506 2442.66 136.911 Q2440.72 138.293 2440.72 140.448 Z" fill="#000000" fill-rule="nonzero" fill-opacity="1" /><path clip-path="url(#clip270)" d="M2461.08 150.918 Q2461.08 143.868 2462.86 140.026 Q2465.34 134.311 2471.2 134.311 Q2472.44 134.311 2473.73 134.663 Q2475.04 134.99 2476.68 136.279 Q2478.34 137.567 2479.35 139.675 Q2481.27 143.75 2481.27 150.918 Q2481.27 157.921 2479.49 161.739 Q2476.89 167.313 2471.15 167.313 Q2469 167.313 2466.8 166.213 Q2464.62 165.112 2463.23 162.465 Q2461.08 158.507 2461.08 150.918 M2465.06 150.332 Q2465.06 157.57 2465.58 160.451 Q2466.16 163.566 2467.76 164.924 Q2469.37 166.259 2471.15 166.259 Q2473.07 166.259 2474.67 164.831 Q2476.28 163.378 2476.77 160.263 Q2477.31 157.195 2477.29 150.332 Q2477.29 143.657 2476.82 140.987 Q2476.19 137.871 2474.5 136.63 Q2472.84 135.365 2471.15 135.365 Q2470.52 135.365 2469.84 135.553 Q2469.18 135.74 2468.22 136.279 Q2467.26 136.817 2466.51 138.153 Q2465.79 139.488 2465.44 141.502 Q2465.06 144.102 2465.06 150.332 Z" fill="#000000" fill-rule="nonzero" fill-opacity="1" /><path clip-path="url(#clip270)" d="M2485.03 150.918 Q2485.03 143.868 2486.81 140.026 Q2489.29 134.311 2495.15 134.311 Q2496.39 134.311 2497.68 134.663 Q2498.99 134.99 2500.63 136.279 Q2502.29 137.567 2503.3 139.675 Q2505.22 143.75 2505.22 150.918 Q2505.22 157.921 2503.44 161.739 Q2500.84 167.313 2495.1 167.313 Q2492.95 167.313 2490.74 166.213 Q2488.57 165.112 2487.18 162.465 Q2485.03 158.507 2485.03 150.918 M2489.01 150.332 Q2489.01 157.57 2489.53 160.451 Q2490.11 163.566 2491.7 164.924 Q2493.32 166.259 2495.1 166.259 Q2497.02 166.259 2498.61 164.831 Q2500.23 163.378 2500.72 160.263 Q2501.26 157.195 2501.24 150.332 Q2501.24 143.657 2500.77 140.987 Q2500.14 137.871 2498.45 136.63 Q2496.79 135.365 2495.1 135.365 Q2494.47 135.365 2493.79 135.553 Q2493.13 135.74 2492.17 136.279 Q2491.21 136.817 2490.46 138.153 Q2489.74 139.488 2489.38 141.502 Q2489.01 144.102 2489.01 150.332 Z" fill="#000000" fill-rule="nonzero" fill-opacity="1" /><path clip-path="url(#clip270)" d="M2508.98 150.918 Q2508.98 143.868 2510.76 140.026 Q2513.24 134.311 2519.1 134.311 Q2520.34 134.311 2521.62 134.663 Q2522.94 134.99 2524.58 136.279 Q2526.24 137.567 2527.25 139.675 Q2529.17 143.75 2529.17 150.918 Q2529.17 157.921 2527.39 161.739 Q2524.79 167.313 2519.05 167.313 Q2516.89 167.313 2514.69 166.213 Q2512.51 165.112 2511.13 162.465 Q2508.98 158.507 2508.98 150.918 M2512.96 150.332 Q2512.96 157.57 2513.47 160.451 Q2514.06 163.566 2515.65 164.924 Q2517.27 166.259 2519.05 166.259 Q2520.97 166.259 2522.56 164.831 Q2524.18 163.378 2524.67 160.263 Q2525.21 157.195 2525.18 150.332 Q2525.18 143.657 2524.72 140.987 Q2524.08 137.871 2522.4 136.63 Q2520.73 135.365 2519.05 135.365 Q2518.42 135.365 2517.74 135.553 Q2517.08 135.74 2516.12 136.279 Q2515.16 136.817 2514.41 138.153 Q2513.68 139.488 2513.33 141.502 Q2512.96 144.102 2512.96 150.332 Z" fill="#000000" fill-rule="nonzero" fill-opacity="1" /></svg>
