<?xml version="1.0" encoding="utf-8"?>
<svg xmlns="http://www.w3.org/2000/svg" xmlns:xlink="http://www.w3.org/1999/xlink" width="960" height="480" viewBox="0 0 3840 1920">
<defs>
  <clipPath id="clip910">
    <rect x="0" y="0" width="3840" height="1920"/>
  </clipPath>
</defs>
<path clip-path="url(#clip910)" d="M0 1920 L3840 1920 L3840 0 L0 0  Z" fill="#ffffff" fill-rule="evenodd" fill-opacity="1"/>
<defs>
  <clipPath id="clip911">
    <rect x="768" y="0" width="2689" height="1920"/>
  </clipPath>
</defs>
<path clip-path="url(#clip910)" d="M939.612 1760.5 L3060.79 1760.5 L3060.79 47.2441 L939.612 47.2441  Z" fill="#ffffff" fill-rule="evenodd" fill-opacity="1"/>
<defs>
  <clipPath id="clip912">
    <rect x="939" y="47" width="2122" height="1714"/>
  </clipPath>
</defs>
<polyline clip-path="url(#clip912)" style="stroke:#000000; stroke-linecap:round; stroke-linejoin:round; stroke-width:2; stroke-opacity:0.1; fill:none" points="1429.11,1760.5 1429.11,47.2441 "/>
<polyline clip-path="url(#clip912)" style="stroke:#000000; stroke-linecap:round; stroke-linejoin:round; stroke-width:2; stroke-opacity:0.1; fill:none" points="1837.03,1760.5 1837.03,47.2441 "/>
<polyline clip-path="url(#clip912)" style="stroke:#000000; stroke-linecap:round; stroke-linejoin:round; stroke-width:2; stroke-opacity:0.1; fill:none" points="2244.95,1760.5 2244.95,47.2441 "/>
<polyline clip-path="url(#clip912)" style="stroke:#000000; stroke-linecap:round; stroke-linejoin:round; stroke-width:2; stroke-opacity:0.1; fill:none" points="2652.87,1760.5 2652.87,47.2441 "/>
<polyline clip-path="url(#clip912)" style="stroke:#000000; stroke-linecap:round; stroke-linejoin:round; stroke-width:2; stroke-opacity:0.1; fill:none" points="3060.79,1760.5 3060.79,47.2441 "/>
<polyline clip-path="url(#clip912)" style="stroke:#000000; stroke-linecap:round; stroke-linejoin:round; stroke-width:2; stroke-opacity:0.1; fill:none" points="939.612,1271 3060.79,1271 "/>
<polyline clip-path="url(#clip912)" style="stroke:#000000; stroke-linecap:round; stroke-linejoin:round; stroke-width:2; stroke-opacity:0.1; fill:none" points="939.612,863.08 3060.79,863.08 "/>
<polyline clip-path="url(#clip912)" style="stroke:#000000; stroke-linecap:round; stroke-linejoin:round; stroke-width:2; stroke-opacity:0.1; fill:none" points="939.612,455.162 3060.79,455.162 "/>
<polyline clip-path="url(#clip912)" style="stroke:#000000; stroke-linecap:round; stroke-linejoin:round; stroke-width:2; stroke-opacity:0.1; fill:none" points="939.612,47.2441 3060.79,47.2441 "/>
<polyline clip-path="url(#clip910)" style="stroke:#000000; stroke-linecap:round; stroke-linejoin:round; stroke-width:4; stroke-opacity:1; fill:none" points="939.612,1678.92 3060.79,1678.92 "/>
<polyline clip-path="url(#clip910)" style="stroke:#000000; stroke-linecap:round; stroke-linejoin:round; stroke-width:4; stroke-opacity:1; fill:none" points="1429.11,1697.81 1429.11,1660.02 "/>
<polyline clip-path="url(#clip910)" style="stroke:#000000; stroke-linecap:round; stroke-linejoin:round; stroke-width:4; stroke-opacity:1; fill:none" points="1837.03,1697.81 1837.03,1660.02 "/>
<polyline clip-path="url(#clip910)" style="stroke:#000000; stroke-linecap:round; stroke-linejoin:round; stroke-width:4; stroke-opacity:1; fill:none" points="2244.95,1697.81 2244.95,1660.02 "/>
<polyline clip-path="url(#clip910)" style="stroke:#000000; stroke-linecap:round; stroke-linejoin:round; stroke-width:4; stroke-opacity:1; fill:none" points="2652.87,1697.81 2652.87,1660.02 "/>
<polyline clip-path="url(#clip910)" style="stroke:#000000; stroke-linecap:round; stroke-linejoin:round; stroke-width:4; stroke-opacity:1; fill:none" points="3060.79,1697.81 3060.79,1660.02 "/>
<path clip-path="url(#clip910)" d="M1403.8 1748.9 L1411.44 1748.9 L1411.44 1722.54 L1403.13 1724.2 L1403.13 1719.94 L1411.39 1718.28 L1416.07 1718.28 L1416.07 1748.9 L1423.71 1748.9 L1423.71 1752.84 L1403.8 1752.84 L1403.8 1748.9 Z" fill="#000000" fill-rule="nonzero" fill-opacity="1" /><path clip-path="url(#clip910)" d="M1443.15 1721.35 Q1439.54 1721.35 1437.71 1724.92 Q1435.91 1728.46 1435.91 1735.59 Q1435.91 1742.7 1437.71 1746.26 Q1439.54 1749.8 1443.15 1749.8 Q1446.79 1749.8 1448.59 1746.26 Q1450.42 1742.7 1450.42 1735.59 Q1450.42 1728.46 1448.59 1724.92 Q1446.79 1721.35 1443.15 1721.35 M1443.15 1717.65 Q1448.96 1717.65 1452.02 1722.26 Q1455.1 1726.84 1455.1 1735.59 Q1455.1 1744.32 1452.02 1748.92 Q1448.96 1753.51 1443.15 1753.51 Q1437.34 1753.51 1434.26 1748.92 Q1431.21 1744.32 1431.21 1735.59 Q1431.21 1726.84 1434.26 1722.26 Q1437.34 1717.65 1443.15 1717.65 Z" fill="#000000" fill-rule="nonzero" fill-opacity="1" /><path clip-path="url(#clip910)" d="M1815.8 1748.9 L1832.12 1748.9 L1832.12 1752.84 L1810.18 1752.84 L1810.18 1748.9 Q1812.84 1746.15 1817.42 1741.52 Q1822.03 1736.86 1823.21 1735.52 Q1825.46 1733 1826.34 1731.26 Q1827.24 1729.5 1827.24 1727.81 Q1827.24 1725.06 1825.3 1723.32 Q1823.37 1721.59 1820.27 1721.59 Q1818.07 1721.59 1815.62 1722.35 Q1813.19 1723.11 1810.41 1724.67 L1810.41 1719.94 Q1813.24 1718.81 1815.69 1718.23 Q1818.14 1717.65 1820.18 1717.65 Q1825.55 1717.65 1828.74 1720.34 Q1831.94 1723.02 1831.94 1727.51 Q1831.94 1729.64 1831.13 1731.56 Q1830.34 1733.46 1828.23 1736.05 Q1827.66 1736.73 1824.55 1739.94 Q1821.45 1743.14 1815.8 1748.9 Z" fill="#000000" fill-rule="nonzero" fill-opacity="1" /><path clip-path="url(#clip910)" d="M1851.94 1721.35 Q1848.33 1721.35 1846.5 1724.92 Q1844.69 1728.46 1844.69 1735.59 Q1844.69 1742.7 1846.5 1746.26 Q1848.33 1749.8 1851.94 1749.8 Q1855.57 1749.8 1857.38 1746.26 Q1859.21 1742.7 1859.21 1735.59 Q1859.21 1728.46 1857.38 1724.92 Q1855.57 1721.35 1851.94 1721.35 M1851.94 1717.65 Q1857.75 1717.65 1860.8 1722.26 Q1863.88 1726.84 1863.88 1735.59 Q1863.88 1744.32 1860.8 1748.92 Q1857.75 1753.51 1851.94 1753.51 Q1846.13 1753.51 1843.05 1748.92 Q1839.99 1744.32 1839.99 1735.59 Q1839.99 1726.84 1843.05 1722.26 Q1846.13 1717.65 1851.94 1717.65 Z" fill="#000000" fill-rule="nonzero" fill-opacity="1" /><path clip-path="url(#clip910)" d="M2233.79 1734.2 Q2237.15 1734.92 2239.02 1737.19 Q2240.92 1739.46 2240.92 1742.79 Q2240.92 1747.91 2237.4 1750.71 Q2233.88 1753.51 2227.4 1753.51 Q2225.23 1753.51 2222.91 1753.07 Q2220.62 1752.65 2218.17 1751.79 L2218.17 1747.28 Q2220.11 1748.41 2222.43 1748.99 Q2224.74 1749.57 2227.26 1749.57 Q2231.66 1749.57 2233.95 1747.84 Q2236.27 1746.1 2236.27 1742.79 Q2236.27 1739.73 2234.12 1738.02 Q2231.99 1736.29 2228.17 1736.29 L2224.14 1736.29 L2224.14 1732.44 L2228.35 1732.44 Q2231.8 1732.44 2233.63 1731.08 Q2235.46 1729.69 2235.46 1727.1 Q2235.46 1724.43 2233.56 1723.02 Q2231.69 1721.59 2228.17 1721.59 Q2226.25 1721.59 2224.05 1722 Q2221.85 1722.42 2219.21 1723.3 L2219.21 1719.13 Q2221.87 1718.39 2224.19 1718.02 Q2226.52 1717.65 2228.58 1717.65 Q2233.91 1717.65 2237.01 1720.08 Q2240.11 1722.49 2240.11 1726.61 Q2240.11 1729.48 2238.47 1731.47 Q2236.82 1733.44 2233.79 1734.2 Z" fill="#000000" fill-rule="nonzero" fill-opacity="1" /><path clip-path="url(#clip910)" d="M2259.79 1721.35 Q2256.18 1721.35 2254.35 1724.92 Q2252.54 1728.46 2252.54 1735.59 Q2252.54 1742.7 2254.35 1746.26 Q2256.18 1749.8 2259.79 1749.8 Q2263.42 1749.8 2265.23 1746.26 Q2267.06 1742.7 2267.06 1735.59 Q2267.06 1728.46 2265.23 1724.92 Q2263.42 1721.35 2259.79 1721.35 M2259.79 1717.65 Q2265.6 1717.65 2268.65 1722.26 Q2271.73 1726.84 2271.73 1735.59 Q2271.73 1744.32 2268.65 1748.92 Q2265.6 1753.51 2259.79 1753.51 Q2253.98 1753.51 2250.9 1748.92 Q2247.84 1744.32 2247.84 1735.59 Q2247.84 1726.84 2250.9 1722.26 Q2253.98 1717.65 2259.79 1717.65 Z" fill="#000000" fill-rule="nonzero" fill-opacity="1" /><path clip-path="url(#clip910)" d="M2641.04 1722.35 L2629.23 1740.8 L2641.04 1740.8 L2641.04 1722.35 M2639.81 1718.28 L2645.69 1718.28 L2645.69 1740.8 L2650.62 1740.8 L2650.62 1744.69 L2645.69 1744.69 L2645.69 1752.84 L2641.04 1752.84 L2641.04 1744.69 L2625.44 1744.69 L2625.44 1740.17 L2639.81 1718.28 Z" fill="#000000" fill-rule="nonzero" fill-opacity="1" /><path clip-path="url(#clip910)" d="M2668.35 1721.35 Q2664.74 1721.35 2662.91 1724.92 Q2661.11 1728.46 2661.11 1735.59 Q2661.11 1742.7 2662.91 1746.26 Q2664.74 1749.8 2668.35 1749.8 Q2671.99 1749.8 2673.79 1746.26 Q2675.62 1742.7 2675.62 1735.59 Q2675.62 1728.46 2673.79 1724.92 Q2671.99 1721.35 2668.35 1721.35 M2668.35 1717.65 Q2674.16 1717.65 2677.22 1722.26 Q2680.3 1726.84 2680.3 1735.59 Q2680.3 1744.32 2677.22 1748.92 Q2674.16 1753.51 2668.35 1753.51 Q2662.54 1753.51 2659.46 1748.92 Q2656.41 1744.32 2656.41 1735.59 Q2656.41 1726.84 2659.46 1722.26 Q2662.54 1717.65 2668.35 1717.65 Z" fill="#000000" fill-rule="nonzero" fill-opacity="1" /><path clip-path="url(#clip910)" d="M3035.48 1718.28 L3053.84 1718.28 L3053.84 1722.21 L3039.77 1722.21 L3039.77 1730.68 Q3040.79 1730.34 3041.8 1730.17 Q3042.82 1729.99 3043.84 1729.99 Q3049.63 1729.99 3053.01 1733.16 Q3056.39 1736.33 3056.39 1741.75 Q3056.39 1747.33 3052.92 1750.43 Q3049.44 1753.51 3043.12 1753.51 Q3040.95 1753.51 3038.68 1753.14 Q3036.43 1752.77 3034.03 1752.03 L3034.03 1747.33 Q3036.11 1748.46 3038.33 1749.02 Q3040.55 1749.57 3043.03 1749.57 Q3047.04 1749.57 3049.37 1747.47 Q3051.71 1745.36 3051.71 1741.75 Q3051.71 1738.14 3049.37 1736.03 Q3047.04 1733.92 3043.03 1733.92 Q3041.16 1733.92 3039.28 1734.34 Q3037.43 1734.76 3035.48 1735.64 L3035.48 1718.28 Z" fill="#000000" fill-rule="nonzero" fill-opacity="1" /><path clip-path="url(#clip910)" d="M3075.6 1721.35 Q3071.99 1721.35 3070.16 1724.92 Q3068.35 1728.46 3068.35 1735.59 Q3068.35 1742.7 3070.16 1746.26 Q3071.99 1749.8 3075.6 1749.8 Q3079.23 1749.8 3081.04 1746.26 Q3082.87 1742.7 3082.87 1735.59 Q3082.87 1728.46 3081.04 1724.92 Q3079.23 1721.35 3075.6 1721.35 M3075.6 1717.65 Q3081.41 1717.65 3084.47 1722.26 Q3087.54 1726.84 3087.54 1735.59 Q3087.54 1744.32 3084.47 1748.92 Q3081.41 1753.51 3075.6 1753.51 Q3069.79 1753.51 3066.71 1748.92 Q3063.66 1744.32 3063.66 1735.59 Q3063.66 1726.84 3066.71 1722.26 Q3069.79 1717.65 3075.6 1717.65 Z" fill="#000000" fill-rule="nonzero" fill-opacity="1" /><path clip-path="url(#clip910)" d="M1970.12 1879.44 L1976.61 1879.44 L1986.61 1919.61 L1996.57 1879.44 L2003.8 1879.44 L2013.79 1919.61 L2023.75 1879.44 L2030.28 1879.44 L2018.34 1926.96 L2010.26 1926.96 L2000.23 1885.71 L1990.11 1926.96 L1982.02 1926.96 L1970.12 1879.44 Z" fill="#000000" fill-rule="nonzero" fill-opacity="1" /><polyline clip-path="url(#clip910)" style="stroke:#000000; stroke-linecap:round; stroke-linejoin:round; stroke-width:4; stroke-opacity:1; fill:none" points="1021.2,1760.5 1021.2,47.2441 "/>
<polyline clip-path="url(#clip910)" style="stroke:#000000; stroke-linecap:round; stroke-linejoin:round; stroke-width:4; stroke-opacity:1; fill:none" points="1010.01,1271 1032.38,1271 "/>
<polyline clip-path="url(#clip910)" style="stroke:#000000; stroke-linecap:round; stroke-linejoin:round; stroke-width:4; stroke-opacity:1; fill:none" points="1010.01,863.08 1032.38,863.08 "/>
<polyline clip-path="url(#clip910)" style="stroke:#000000; stroke-linecap:round; stroke-linejoin:round; stroke-width:4; stroke-opacity:1; fill:none" points="1010.01,455.162 1032.38,455.162 "/>
<polyline clip-path="url(#clip910)" style="stroke:#000000; stroke-linecap:round; stroke-linejoin:round; stroke-width:4; stroke-opacity:1; fill:none" points="1010.01,47.2441 1032.38,47.2441 "/>
<path clip-path="url(#clip910)" d="M912.299 1284.34 L919.938 1284.34 L919.938 1257.98 L911.628 1259.64 L911.628 1255.38 L919.892 1253.72 L924.568 1253.72 L924.568 1284.34 L932.206 1284.34 L932.206 1288.28 L912.299 1288.28 L912.299 1284.34 Z" fill="#000000" fill-rule="nonzero" fill-opacity="1" /><path clip-path="url(#clip910)" d="M951.651 1256.8 Q948.04 1256.8 946.211 1260.36 Q944.405 1263.9 944.405 1271.03 Q944.405 1278.14 946.211 1281.7 Q948.04 1285.25 951.651 1285.25 Q955.285 1285.25 957.091 1281.7 Q958.919 1278.14 958.919 1271.03 Q958.919 1263.9 957.091 1260.36 Q955.285 1256.8 951.651 1256.8 M951.651 1253.09 Q957.461 1253.09 960.516 1257.7 Q963.595 1262.28 963.595 1271.03 Q963.595 1279.76 960.516 1284.37 Q957.461 1288.95 951.651 1288.95 Q945.841 1288.95 942.762 1284.37 Q939.706 1279.76 939.706 1271.03 Q939.706 1262.28 942.762 1257.7 Q945.841 1253.09 951.651 1253.09 Z" fill="#000000" fill-rule="nonzero" fill-opacity="1" /><path clip-path="url(#clip910)" d="M915.517 876.425 L931.836 876.425 L931.836 880.36 L909.892 880.36 L909.892 876.425 Q912.554 873.67 917.137 869.041 Q921.744 864.388 922.924 863.045 Q925.169 860.522 926.049 858.786 Q926.952 857.027 926.952 855.337 Q926.952 852.583 925.007 850.846 Q923.086 849.11 919.984 849.11 Q917.785 849.11 915.332 849.874 Q912.901 850.638 910.123 852.189 L910.123 847.467 Q912.947 846.333 915.401 845.754 Q917.855 845.175 919.892 845.175 Q925.262 845.175 928.456 847.86 Q931.651 850.546 931.651 855.036 Q931.651 857.166 930.841 859.087 Q930.054 860.985 927.947 863.578 Q927.368 864.249 924.267 867.467 Q921.165 870.661 915.517 876.425 Z" fill="#000000" fill-rule="nonzero" fill-opacity="1" /><path clip-path="url(#clip910)" d="M951.651 848.879 Q948.04 848.879 946.211 852.444 Q944.405 855.985 944.405 863.115 Q944.405 870.221 946.211 873.786 Q948.04 877.328 951.651 877.328 Q955.285 877.328 957.091 873.786 Q958.919 870.221 958.919 863.115 Q958.919 855.985 957.091 852.444 Q955.285 848.879 951.651 848.879 M951.651 845.175 Q957.461 845.175 960.516 849.782 Q963.595 854.365 963.595 863.115 Q963.595 871.842 960.516 876.448 Q957.461 881.031 951.651 881.031 Q945.841 881.031 942.762 876.448 Q939.706 871.842 939.706 863.115 Q939.706 854.365 942.762 849.782 Q945.841 845.175 951.651 845.175 Z" fill="#000000" fill-rule="nonzero" fill-opacity="1" /><path clip-path="url(#clip910)" d="M925.656 453.808 Q929.012 454.526 930.887 456.794 Q932.785 459.063 932.785 462.396 Q932.785 467.512 929.267 470.313 Q925.748 473.113 919.267 473.113 Q917.091 473.113 914.776 472.674 Q912.484 472.257 910.031 471.4 L910.031 466.887 Q911.975 468.021 914.29 468.6 Q916.605 469.178 919.128 469.178 Q923.526 469.178 925.818 467.442 Q928.132 465.706 928.132 462.396 Q928.132 459.34 925.98 457.627 Q923.85 455.891 920.031 455.891 L916.003 455.891 L916.003 452.049 L920.216 452.049 Q923.665 452.049 925.494 450.683 Q927.322 449.294 927.322 446.702 Q927.322 444.04 925.424 442.627 Q923.549 441.192 920.031 441.192 Q918.109 441.192 915.91 441.609 Q913.711 442.026 911.072 442.905 L911.072 438.739 Q913.734 437.998 916.049 437.628 Q918.387 437.257 920.447 437.257 Q925.771 437.257 928.873 439.688 Q931.975 442.095 931.975 446.215 Q931.975 449.086 930.331 451.077 Q928.688 453.044 925.656 453.808 Z" fill="#000000" fill-rule="nonzero" fill-opacity="1" /><path clip-path="url(#clip910)" d="M951.651 440.961 Q948.04 440.961 946.211 444.526 Q944.405 448.067 944.405 455.197 Q944.405 462.303 946.211 465.868 Q948.04 469.41 951.651 469.41 Q955.285 469.41 957.091 465.868 Q958.919 462.303 958.919 455.197 Q958.919 448.067 957.091 444.526 Q955.285 440.961 951.651 440.961 M951.651 437.257 Q957.461 437.257 960.516 441.864 Q963.595 446.447 963.595 455.197 Q963.595 463.924 960.516 468.53 Q957.461 473.113 951.651 473.113 Q945.841 473.113 942.762 468.53 Q939.706 463.924 939.706 455.197 Q939.706 446.447 942.762 441.864 Q945.841 437.257 951.651 437.257 Z" fill="#000000" fill-rule="nonzero" fill-opacity="1" /><path clip-path="url(#clip910)" d="M924.336 34.0381 L912.531 52.4871 L924.336 52.4871 L924.336 34.0381 M923.109 29.9641 L928.989 29.9641 L928.989 52.4871 L933.919 52.4871 L933.919 56.376 L928.989 56.376 L928.989 64.5241 L924.336 64.5241 L924.336 56.376 L908.734 56.376 L908.734 51.8621 L923.109 29.9641 Z" fill="#000000" fill-rule="nonzero" fill-opacity="1" /><path clip-path="url(#clip910)" d="M951.651 33.0428 Q948.04 33.0428 946.211 36.6076 Q944.405 40.1492 944.405 47.2788 Q944.405 54.3853 946.211 57.9501 Q948.04 61.4917 951.651 61.4917 Q955.285 61.4917 957.091 57.9501 Q958.919 54.3853 958.919 47.2788 Q958.919 40.1492 957.091 36.6076 Q955.285 33.0428 951.651 33.0428 M951.651 29.3391 Q957.461 29.3391 960.516 33.9456 Q963.595 38.5289 963.595 47.2788 Q963.595 56.0056 960.516 60.6121 Q957.461 65.1954 951.651 65.1954 Q945.841 65.1954 942.762 60.6121 Q939.706 56.0056 939.706 47.2788 Q939.706 38.5289 942.762 33.9456 Q945.841 29.3391 951.651 29.3391 Z" fill="#000000" fill-rule="nonzero" fill-opacity="1" /><path clip-path="url(#clip910)" d="M711.435 884.711 L718.214 884.711 Q715.191 887.958 713.695 891.65 Q712.199 895.31 712.199 899.448 Q712.199 907.596 717.196 911.925 Q722.161 916.253 731.582 916.253 Q740.972 916.253 745.969 911.925 Q750.934 907.596 750.934 899.448 Q750.934 895.31 749.438 891.65 Q747.942 887.958 744.919 884.711 L751.634 884.711 Q753.926 888.085 755.072 891.873 Q756.218 895.628 756.218 899.83 Q756.218 910.62 749.629 916.826 Q743.009 923.033 731.582 923.033 Q720.124 923.033 713.536 916.826 Q706.915 910.62 706.915 899.83 Q706.915 895.565 708.061 891.809 Q709.175 888.021 711.435 884.711 Z" fill="#000000" fill-rule="nonzero" fill-opacity="1" /><path clip-path="url(#clip912)" d="M2380.92 1678.92 L1837.03 863.08 L1021.2 455.162 L1021.2 1678.92 L2380.92 1678.92  Z" fill="#009af9" fill-rule="evenodd" fill-opacity="0.15"/>
<polyline clip-path="url(#clip912)" style="stroke:#000000; stroke-linecap:round; stroke-linejoin:round; stroke-width:4; stroke-opacity:0.15; fill:none" points="2380.92,1678.92 1837.03,863.08 1021.2,455.162 1021.2,1678.92 2380.92,1678.92 "/>
<polyline clip-path="url(#clip912)" style="stroke:#000000; stroke-linecap:round; stroke-linejoin:round; stroke-width:8; stroke-opacity:1; fill:none" points="939.612,414.37 3060.79,1474.96 "/>
<polyline clip-path="url(#clip912)" style="stroke:#000000; stroke-linecap:round; stroke-linejoin:round; stroke-width:8; stroke-opacity:1; fill:none" points="2435.31,1760.5 1293.14,47.2441 "/>
<polyline clip-path="url(#clip912)" style="stroke:#000000; stroke-linecap:round; stroke-linejoin:round; stroke-width:8; stroke-opacity:1; fill:none" points="3060.79,1271 1837.03,47.2441 "/>
<polyline clip-path="url(#clip912)" style="stroke:#000000; stroke-linecap:round; stroke-linejoin:round; stroke-width:8; stroke-opacity:1; fill:none" points="1021.2,1760.5 1021.2,47.2441 "/>
<polyline clip-path="url(#clip912)" style="stroke:#000000; stroke-linecap:round; stroke-linejoin:round; stroke-width:8; stroke-opacity:1; fill:none" points="939.612,1678.92 3060.79,1678.92 "/>
<circle clip-path="url(#clip912)" cx="1837.03" cy="863.08" r="25.2" fill="#ff0000" fill-rule="evenodd" fill-opacity="1" stroke="#000000" stroke-opacity="1" stroke-width="3.84"/>
<polyline clip-path="url(#clip912)" style="stroke:#ff0000; stroke-linecap:round; stroke-linejoin:round; stroke-width:8; stroke-opacity:1; fill:none" points="939.612,264.8 3060.79,1678.92 "/>
</svg>
